<?xml version="1.0" standalone="no"?>
<!DOCTYPE svg PUBLIC "-//W3C//DTD SVG 20010904//EN"
 "http://www.w3.org/TR/2001/REC-SVG-20010904/DTD/svg10.dtd">
<svg version="1.0" xmlns="http://www.w3.org/2000/svg"
 width="896.000000pt" height="896.000000pt" viewBox="0 0 896.000000 896.000000"
 preserveAspectRatio="xMidYMid meet">
<metadata>
Created by potrace 1.14, written by Peter Selinger 2001-2017
</metadata>
<g transform="translate(0.000000,896.000000) scale(0.100000,-0.100000)"
fill="#000000" stroke="none">
<path d="M639 8471 c-1 -3 -1 -9 0 -13 0 -5 -2 -7 -6 -7 -18 3 -36 -1 -30 -7
8 -8 -16 -33 -25 -27 -4 2 -5 -4 -1 -13 4 -12 3 -15 -5 -10 -11 6 -17 -5 -13
-26 1 -8 -16 -12 -34 -8 -5 1 -7 -2 -3 -6 4 -4 3 -13 -3 -21 -6 -7 -8 -13 -5
-13 4 0 1 -6 -6 -14 -7 -8 -17 -11 -22 -8 -5 3 -6 0 -2 -6 3 -6 2 -13 -4 -17
-6 -4 -8 -11 -5 -16 4 -5 1 -9 -5 -9 -7 0 -10 -7 -6 -15 3 -8 -3 -19 -13 -25
-13 -7 -17 -16 -14 -31 4 -15 2 -20 -5 -15 -8 4 -10 2 -6 -7 3 -8 0 -18 -6
-22 -8 -5 -8 -11 1 -21 10 -12 9 -13 -5 -8 -12 5 -15 2 -10 -10 3 -9 0 -24 -7
-33 -10 -11 -10 -14 -2 -9 9 5 11 2 7 -8 -3 -9 -11 -13 -18 -10 -6 3 -2 -2 8
-10 12 -10 15 -16 7 -16 -8 0 -11 -8 -8 -20 3 -11 2 -18 -2 -16 -10 6 -7 -162
3 -171 5 -5 6 -2 1 6 -6 10 -4 12 5 6 10 -6 10 -11 -3 -20 -18 -13 -24 -31 -8
-20 5 3 12 1 16 -5 3 -5 0 -10 -7 -10 -9 0 -9 -3 2 -10 8 -5 11 -10 6 -10 -5
0 -3 -7 4 -15 10 -12 10 -15 -1 -15 -12 0 -12 -2 0 -9 8 -5 11 -16 8 -25 -4
-9 -1 -16 4 -16 6 0 9 -9 6 -20 -3 -11 0 -23 5 -27 7 -4 8 -1 3 7 -5 9 -4 11
3 6 7 -4 12 -18 12 -32 0 -13 5 -24 10 -24 6 0 10 -10 10 -23 0 -13 9 -33 19
-44 11 -12 17 -24 14 -27 -4 -3 2 -6 13 -6 16 0 17 -2 4 -10 -9 -6 -10 -10 -3
-10 6 0 19 -7 27 -16 15 -14 17 -14 22 0 3 9 10 16 16 16 5 0 6 -5 2 -12 -4
-7 -3 -8 5 -4 6 4 9 12 6 17 -4 5 -1 9 5 9 6 0 8 5 4 12 -5 7 -2 9 8 5 11 -4
18 1 21 15 3 11 10 17 16 13 6 -3 11 1 11 10 0 11 5 15 14 12 10 -4 13 -1 9 9
-3 8 1 14 11 14 10 0 13 5 9 17 -4 11 -3 14 5 9 11 -7 17 7 12 29 -1 6 1 7 5
3 9 -8 35 16 35 32 0 6 4 9 8 6 5 -3 9 1 10 9 1 8 3 22 4 30 1 8 5 12 9 9 10
-6 31 31 22 40 -3 3 -1 6 6 6 7 0 9 5 6 10 -3 6 1 13 10 16 13 6 14 8 3 15
-10 7 -10 9 0 9 6 0 12 9 12 20 0 11 5 20 11 20 6 0 9 7 5 15 -3 8 -1 15 3 15
5 0 7 10 3 22 -3 14 -1 19 6 14 7 -4 10 1 7 14 -2 11 0 20 4 20 4 0 7 17 6 38
-1 20 1 42 6 47 10 14 17 105 7 99 -4 -3 -8 0 -8 5 0 6 6 11 13 11 8 0 7 4 -3
10 -8 5 -10 10 -3 10 12 0 9 72 -4 93 -10 17 -11 67 0 74 4 2 3 11 -4 19 -6 7
-16 11 -23 7 -6 -4 -5 1 3 10 11 14 11 20 1 32 -7 8 -10 24 -7 34 3 14 1 18
-10 14 -9 -4 -14 0 -13 8 6 39 2 40 -105 38 -58 -1 -106 -4 -106 -8z"/>
<path d="M4446 8468 c5 -7 2 -9 -8 -5 -9 3 -20 1 -26 -5 -8 -8 -15 -8 -26 1
-11 9 -15 9 -20 -1 -5 -10 -7 -10 -12 0 -3 6 -10 12 -15 12 -6 0 -8 -4 -5 -8
6 -10 -25 -9 -42 2 -6 4 -18 4 -24 -1 -14 -9 -19 -9 -101 -12 -43 -1 -57 -4
-52 -13 4 -7 -1 -4 -9 6 -12 15 -16 16 -16 5 0 -8 -9 -15 -19 -15 -11 0 -17 5
-13 11 3 6 0 5 -9 -1 -8 -6 -34 -12 -59 -13 -24 0 -49 -6 -54 -11 -15 -15 -26
-12 -27 8 0 14 -2 14 -7 2 -5 -10 -23 -16 -51 -17 -24 -1 -50 -8 -59 -15 -12
-11 -16 -11 -20 0 -3 10 -8 8 -19 -5 -8 -10 -12 -12 -8 -5 8 15 -7 16 -23 0
-9 -9 -12 -9 -12 1 0 7 -5 9 -10 6 -6 -4 -7 -11 -4 -17 5 -7 2 -8 -7 -2 -22
13 -41 14 -36 1 3 -8 -10 -12 -39 -11 -24 0 -44 -3 -44 -8 0 -4 -5 -8 -11 -8
-5 0 -7 5 -3 11 3 6 -5 4 -18 -5 -14 -9 -28 -13 -31 -9 -4 3 -7 0 -7 -8 0 -11
-2 -11 -10 1 -9 13 -10 13 -10 0 0 -13 -1 -13 -10 0 -8 13 -10 12 -10 -3 0
-10 -5 -15 -10 -12 -6 4 -17 2 -25 -5 -10 -8 -15 -8 -20 1 -5 7 -10 8 -14 1
-3 -5 -15 -12 -26 -14 -11 -1 -23 -7 -27 -13 -5 -6 -8 -5 -8 3 0 6 -5 12 -11
12 -5 0 -7 -4 -4 -10 5 -9 -15 -15 -37 -11 -5 0 -8 -4 -8 -11 0 -9 -3 -9 -12
0 -9 9 -16 8 -29 -4 -10 -9 -29 -17 -43 -18 -15 0 -26 -7 -27 -16 0 -11 -2
-12 -6 -2 -4 10 -10 9 -26 -5 -11 -10 -17 -12 -13 -5 4 6 2 12 -3 12 -6 0 -11
-5 -11 -10 0 -6 -8 -10 -17 -8 -10 2 -17 -2 -16 -8 1 -8 -6 -10 -19 -6 -13 3
-19 1 -15 -5 4 -6 -6 -9 -23 -8 -16 1 -27 -2 -25 -6 3 -4 -2 -10 -11 -13 -10
-4 -13 -2 -8 7 5 7 0 5 -11 -3 -10 -8 -21 -14 -24 -13 -3 1 -8 -1 -11 -4 -3
-4 1 -3 9 2 9 5 12 4 8 -3 -4 -5 -15 -9 -25 -8 -9 2 -20 -1 -23 -7 -4 -5 -20
-10 -37 -11 -17 0 -30 -5 -29 -11 1 -5 -6 -9 -16 -8 -10 0 -16 -4 -14 -10 3
-7 -7 -12 -25 -13 -17 -1 -33 -6 -37 -13 -4 -6 -19 -12 -33 -13 -15 -1 -25 -5
-22 -9 3 -6 -25 -17 -43 -17 -3 0 -10 -6 -14 -14 -7 -10 -9 -10 -9 0 0 7 -5
10 -10 7 -6 -4 -8 -10 -5 -15 3 -5 0 -12 -6 -16 -8 -4 -9 -3 -5 4 4 7 2 12 -3
12 -6 0 -11 -5 -11 -11 0 -6 -7 -8 -16 -5 -15 6 -15 4 -3 -11 10 -12 11 -15 1
-9 -19 11 -64 -2 -56 -16 5 -8 0 -9 -15 -5 -17 4 -21 2 -17 -9 3 -8 2 -13 -3
-9 -5 3 -17 -2 -25 -11 -12 -11 -16 -12 -16 -2 -1 9 -4 8 -10 -3 -5 -9 -21
-20 -35 -23 -14 -4 -23 -11 -20 -16 3 -6 -1 -7 -9 -4 -9 3 -16 2 -16 -4 0 -5
-11 -13 -25 -16 -14 -4 -25 -11 -25 -17 0 -6 -5 -7 -10 -4 -6 3 -13 -1 -16 -9
-3 -9 -15 -16 -26 -16 -12 0 -17 -4 -12 -12 5 -7 2 -9 -9 -5 -9 3 -18 0 -21
-9 -3 -9 -10 -12 -16 -9 -5 3 -10 1 -10 -4 0 -6 -7 -11 -15 -11 -8 0 -15 -3
-15 -8 0 -4 -14 -13 -30 -20 -17 -8 -28 -18 -24 -23 3 -5 -7 -9 -21 -9 -22 0
-26 -4 -21 -17 4 -10 4 -14 0 -11 -9 10 -46 -11 -39 -22 3 -4 -5 -6 -17 -2
-14 3 -19 1 -14 -6 3 -6 2 -13 -4 -17 -5 -3 -10 0 -10 7 -1 7 -6 3 -13 -10 -7
-12 -16 -19 -20 -16 -4 4 -7 3 -7 -3 0 -11 -50 -38 -63 -34 -5 1 -6 -3 -2 -9
3 -5 -1 -13 -9 -16 -9 -3 -13 -11 -9 -17 3 -5 2 -7 -4 -4 -13 8 -55 -22 -48
-34 3 -5 0 -6 -8 -3 -9 3 -17 -3 -20 -16 -3 -13 -10 -19 -17 -15 -7 4 -18 -2
-26 -14 -9 -12 -20 -18 -26 -15 -8 5 -9 1 -5 -10 4 -9 3 -15 -2 -12 -4 3 -17
-4 -27 -15 -10 -11 -23 -18 -30 -15 -8 3 -11 -1 -8 -9 6 -15 -29 -39 -40 -27
-4 3 -4 -2 0 -11 3 -10 3 -17 -2 -15 -5 2 -9 0 -9 -5 0 -4 -15 -16 -33 -27
-18 -11 -30 -25 -27 -30 3 -5 -10 -17 -29 -27 -19 -9 -33 -20 -31 -24 3 -4 -2
-10 -11 -13 -8 -3 -12 -11 -9 -16 4 -6 3 -10 -2 -9 -20 3 -33 -2 -33 -13 0
-17 -44 -58 -61 -58 -12 0 -12 -2 0 -9 11 -7 9 -10 -8 -16 -14 -4 -20 -12 -17
-21 3 -8 2 -12 -4 -9 -5 3 -14 -4 -20 -15 -6 -11 -16 -17 -22 -14 -7 4 -8 3
-4 -4 3 -6 -3 -16 -14 -22 -11 -6 -18 -15 -15 -21 4 -5 2 -9 -4 -9 -5 0 -18
-13 -28 -30 -9 -16 -23 -30 -30 -30 -7 0 -12 -3 -12 -7 4 -22 -2 -33 -13 -27
-8 5 -9 2 -5 -9 5 -13 1 -17 -16 -17 -18 0 -19 -2 -7 -10 13 -8 12 -10 -2 -10
-10 0 -17 -4 -15 -9 1 -4 -7 -17 -18 -27 -12 -11 -14 -15 -5 -9 10 6 9 2 -4
-12 -10 -13 -23 -20 -27 -17 -5 3 -6 -2 -3 -10 3 -9 1 -16 -5 -16 -6 0 -11 -7
-11 -16 0 -8 -4 -12 -10 -9 -5 3 -11 1 -11 -4 -1 -6 -2 -17 -3 -23 -1 -7 -7
-12 -14 -11 -7 2 -12 -6 -12 -18 0 -11 -4 -18 -9 -15 -11 7 -23 -22 -14 -36 3
-7 1 -8 -5 -4 -13 8 -45 -47 -34 -59 4 -5 1 -5 -5 -1 -7 4 -13 2 -13 -4 0 -6
-4 -9 -8 -6 -5 3 -9 -1 -10 -9 -1 -8 -3 -21 -4 -29 -1 -8 -6 -14 -11 -13 -6 1
-14 -9 -18 -23 -4 -14 -8 -20 -9 -15 -1 6 -5 -1 -9 -15 -4 -14 -13 -24 -19
-23 -6 2 -9 -4 -6 -12 4 -8 1 -15 -7 -15 -7 0 -9 -3 -6 -7 4 -3 -1 -12 -11
-20 -11 -10 -12 -12 -2 -8 8 4 4 -3 -10 -15 -14 -12 -19 -19 -12 -15 10 5 9
-1 -2 -24 -9 -17 -21 -31 -27 -31 -6 0 -9 -9 -6 -20 3 -11 0 -18 -6 -17 -6 1
-12 -5 -12 -13 0 -8 -7 -14 -15 -12 -10 2 -11 0 -2 -11 10 -11 9 -17 -1 -26
-8 -6 -16 -8 -19 -6 -3 3 -5 -2 -5 -12 0 -34 -3 -44 -12 -39 -5 3 -12 -1 -15
-10 -4 -10 -2 -13 7 -8 8 5 7 2 -2 -9 -7 -9 -10 -17 -5 -17 4 0 -5 -14 -22
-32 -16 -17 -23 -28 -17 -24 9 5 11 2 7 -8 -3 -9 -10 -16 -16 -16 -5 0 -7 -4
-3 -9 3 -5 0 -13 -6 -16 -5 -4 -8 -14 -5 -22 3 -8 1 -11 -4 -8 -6 4 -13 -7
-16 -24 -4 -17 -11 -31 -16 -31 -6 0 -8 -9 -5 -20 3 -11 2 -18 -3 -15 -4 3
-11 -2 -14 -11 -3 -9 -2 -12 4 -9 6 4 2 -8 -10 -27 -11 -18 -20 -41 -20 -50 0
-10 -4 -18 -10 -18 -5 0 -10 -9 -10 -20 0 -11 -6 -20 -12 -20 -10 0 -10 -2 0
-9 10 -6 10 -10 -2 -21 -9 -7 -13 -16 -10 -22 3 -5 1 -15 -5 -22 -9 -11 -18
-40 -20 -69 -1 -5 -5 -6 -10 -3 -5 4 -8 -2 -7 -11 2 -10 -2 -21 -8 -25 -8 -6
-8 -8 1 -8 6 0 9 -9 6 -20 -3 -11 -10 -20 -15 -20 -5 0 -6 5 -2 12 5 7 3 8 -5
3 -8 -5 -9 -11 -3 -17 13 -13 4 -45 -15 -52 -8 -4 -11 -11 -7 -18 15 -24 12
-49 -5 -43 -8 3 -12 3 -8 -1 4 -4 1 -14 -6 -22 -10 -13 -9 -14 2 -8 10 7 12 3
6 -15 -4 -13 -12 -33 -19 -44 -6 -11 -12 -41 -11 -67 0 -25 -3 -44 -7 -41 -8
4 -12 -19 -9 -44 1 -7 -4 -10 -11 -8 -15 6 -22 45 -8 45 6 0 6 10 0 25 -7 18
-6 25 3 25 8 0 8 3 -2 9 -9 6 -10 11 -2 15 7 5 8 13 2 24 -10 19 10 57 24 44
5 -4 5 -1 1 6 -4 7 -12 10 -17 7 -5 -4 -9 1 -9 10 0 9 5 13 10 10 6 -3 10 1
10 10 0 9 -5 13 -11 9 -8 -4 -8 -1 -2 12 5 11 9 28 9 39 -1 11 4 23 9 27 6 5
5 8 -4 8 -11 0 -10 5 3 24 9 15 12 27 6 31 -5 3 -7 12 -4 20 4 8 11 12 17 8 6
-3 7 -1 3 6 -6 9 -12 9 -24 -1 -12 -9 -11 -6 2 10 11 12 16 22 11 22 -4 0 -3
6 3 13 6 7 7 18 2 26 -10 17 -2 43 11 35 12 -7 -2 29 -15 38 -7 5 -4 8 6 8 11
0 16 6 13 20 -2 11 1 20 6 20 6 0 6 8 -1 20 -8 14 -8 20 0 20 6 0 8 5 5 10 -3
6 -1 10 4 10 6 0 11 5 11 11 0 5 -5 7 -10 4 -6 -3 -10 -1 -10 4 0 6 4 11 9 11
5 0 8 8 6 18 -1 9 2 23 8 30 8 10 7 16 -4 23 -13 8 -5 14 15 10 5 -1 4 5 -4
13 -7 9 -8 16 -2 16 5 0 13 7 16 16 3 8 2 12 -4 9 -14 -9 -12 9 2 23 7 7 8 12
3 12 -4 0 0 10 11 22 11 13 12 18 3 11 -13 -11 -15 -9 -11 17 2 16 8 28 12 25
5 -3 7 6 5 20 -1 17 3 25 14 25 13 0 14 2 2 9 -11 7 -12 13 -4 23 6 7 9 21 8
31 -2 9 0 17 5 17 4 0 6 9 3 20 -3 11 -1 20 5 20 6 0 9 9 7 20 -3 14 2 20 13
20 15 0 15 2 2 10 -12 8 -13 13 -2 30 6 11 12 30 12 43 0 13 5 28 12 35 7 7 8
12 4 12 -5 0 -3 7 4 15 7 8 9 15 5 15 -4 0 -1 8 6 17 11 13 11 15 1 9 -11 -7
-11 -4 -1 15 23 44 26 54 24 76 -1 14 3 19 12 16 9 -4 11 0 6 13 -4 12 -3 15
6 9 10 -6 11 -3 2 14 -8 14 -8 21 -1 21 5 0 9 6 7 13 -1 6 3 11 10 10 7 -2 10
4 6 13 -3 9 0 20 8 25 8 5 9 9 2 9 -8 0 -8 6 0 24 7 13 15 22 19 20 4 -2 5 7
2 22 -3 18 -1 23 7 18 9 -5 10 -1 7 14 -4 12 -2 22 4 22 6 0 8 7 4 15 -3 10 1
15 12 15 13 0 14 2 4 9 -11 7 -10 9 3 15 9 3 14 10 10 15 -3 5 -1 12 4 16 6 3
8 12 4 20 -3 8 0 15 5 15 6 0 9 9 7 21 -3 15 0 19 10 15 9 -3 12 0 8 10 -3 8
1 14 8 14 12 0 12 2 1 9 -11 6 -10 10 3 15 15 5 15 9 4 23 -9 11 -10 14 -2 10
8 -5 15 1 19 17 3 13 13 27 21 30 12 5 13 9 4 20 -9 11 -8 15 5 20 9 4 14 13
10 21 -3 8 -1 15 4 15 6 0 10 7 10 16 0 9 5 12 13 8 7 -5 6 0 -3 11 -9 11 -10
16 -2 11 6 -4 13 -2 13 3 1 6 2 15 3 21 0 5 9 18 18 30 11 12 13 20 6 20 -7 0
-4 6 7 13 11 9 15 19 10 27 -6 9 -4 12 6 8 10 -4 15 1 16 15 1 11 8 24 15 28
11 7 11 9 0 9 -10 0 -9 4 2 16 9 8 14 20 10 25 -3 5 0 8 7 7 7 -2 13 2 14 7 0
6 4 16 8 23 5 6 5 12 1 12 -4 0 0 6 9 13 9 6 17 19 19 27 2 8 8 20 15 28 7 7
10 19 6 27 -4 11 0 14 13 9 11 -4 16 -4 12 0 -4 5 2 23 12 41 10 18 24 43 32
56 7 13 16 26 19 29 3 3 8 13 12 23 4 10 11 16 16 12 6 -3 8 4 6 15 -2 11 3
24 13 30 9 5 13 10 8 10 -5 0 1 9 14 20 14 12 18 20 9 20 -8 0 -4 6 9 16 12 8
22 21 22 29 0 7 6 16 13 18 9 4 9 6 0 6 -20 1 -23 1 -21 -1 1 -2 -11 -16 -26
-32 -14 -16 -25 -35 -22 -42 3 -8 0 -11 -9 -8 -7 3 -18 -4 -25 -15 -6 -12 -8
-21 -4 -21 4 0 -5 -10 -20 -21 -16 -12 -25 -27 -22 -36 3 -8 2 -11 -3 -8 -6 3
-18 -8 -27 -24 -10 -17 -21 -28 -26 -25 -4 3 -5 -3 -1 -12 5 -13 3 -15 -7 -9
-9 5 -11 4 -6 -4 8 -13 -18 -44 -28 -33 -4 3 -4 -1 0 -11 3 -10 1 -17 -5 -17
-6 0 -11 -7 -11 -15 0 -8 -5 -15 -11 -15 -5 0 -8 -4 -4 -9 3 -6 -4 -15 -15
-21 -11 -6 -18 -15 -15 -21 4 -5 1 -9 -5 -9 -6 0 -8 -4 -5 -10 3 -5 -1 -10
-11 -10 -14 0 -15 -2 -3 -17 8 -9 10 -14 4 -11 -9 6 -33 -13 -38 -29 -1 -5 -5
-7 -8 -6 -3 1 -5 -9 -4 -22 2 -17 -1 -22 -11 -18 -8 3 -14 2 -12 -3 1 -5 -3
-19 -10 -30 -6 -12 -8 -25 -4 -29 4 -5 1 -5 -5 -1 -12 6 -18 -5 -14 -26 0 -5
-3 -8 -8 -8 -5 0 -12 -11 -15 -25 -4 -16 -11 -23 -18 -19 -8 5 -9 2 -5 -9 4
-11 1 -17 -8 -17 -8 0 -15 -3 -14 -7 2 -15 -13 -53 -21 -53 -4 0 -11 -11 -14
-25 -4 -14 -11 -25 -17 -25 -8 0 -7 -5 1 -16 8 -8 9 -14 4 -12 -5 2 -10 -1
-12 -7 -2 -5 -10 -14 -18 -18 -8 -5 -12 -12 -9 -18 4 -5 1 -9 -4 -9 -6 0 -10
-3 -10 -7 4 -22 -2 -33 -13 -27 -8 5 -8 1 2 -12 8 -10 11 -16 6 -12 -11 10
-35 -14 -29 -29 3 -7 0 -13 -6 -13 -6 0 -10 -3 -10 -7 4 -22 -2 -33 -13 -27
-8 5 -9 2 -5 -9 3 -9 -1 -23 -9 -32 -9 -8 -12 -15 -8 -15 4 0 -1 -10 -12 -22
-10 -12 -13 -18 -6 -14 19 11 14 -1 -10 -25 -13 -12 -16 -18 -8 -14 13 8 13 7
1 -8 -7 -9 -10 -17 -5 -17 4 0 -1 -7 -12 -15 -16 -13 -17 -16 -4 -25 13 -8 13
-10 -2 -10 -10 0 -18 -7 -18 -16 0 -9 -5 -12 -11 -8 -8 5 -9 2 -1 -12 8 -14 6
-21 -6 -32 -13 -10 -13 -12 -2 -7 12 5 12 4 -1 -7 -9 -7 -15 -21 -13 -30 2
-17 -8 -23 -30 -19 -5 1 -4 -5 4 -13 10 -13 10 -16 -1 -16 -11 0 -11 -2 1 -10
9 -6 10 -10 3 -10 -6 0 -14 -14 -18 -30 -4 -19 -11 -28 -18 -23 -7 4 -5 -2 3
-12 9 -11 10 -16 3 -11 -12 6 -18 -11 -14 -36 0 -5 -4 -8 -11 -8 -6 0 -8 -3
-5 -7 4 -3 2 -13 -5 -20 -11 -14 -16 -32 -20 -75 -1 -10 -9 -18 -18 -19 -11 0
-11 -2 -2 -6 10 -4 10 -8 1 -19 -6 -7 -9 -20 -5 -29 3 -8 0 -14 -6 -12 -8 1
-12 -12 -13 -35 0 -20 -3 -34 -7 -31 -5 2 -8 -1 -8 -7 0 -6 -4 -8 -10 -5 -7 4
-7 -3 0 -20 5 -14 6 -24 1 -21 -5 3 -12 -1 -15 -10 -4 -10 -2 -13 7 -8 9 5 9
4 0 -7 -7 -7 -13 -23 -13 -36 0 -13 -5 -23 -11 -23 -5 0 -7 -4 -4 -10 3 -5 1
-10 -6 -10 -8 0 -8 -4 1 -15 7 -9 8 -15 2 -15 -5 0 -13 -7 -16 -16 -3 -8 -2
-12 4 -9 5 3 3 -7 -5 -21 -8 -15 -12 -31 -9 -36 3 -4 0 -8 -7 -8 -8 0 -7 -5 2
-17 12 -14 12 -16 0 -8 -11 6 -13 4 -8 -8 3 -9 2 -19 -3 -22 -5 -3 -7 -14 -5
-25 2 -11 -1 -20 -7 -20 -7 0 -6 -5 1 -14 9 -11 9 -16 -1 -23 -8 -5 -14 -32
-15 -68 -2 -49 -4 -358 -2 -415 0 -8 0 -116 0 -240 -1 -124 -1 -232 0 -240 0
-8 0 -116 0 -240 -1 -124 -1 -232 0 -240 0 -8 -1 -73 -1 -145 -1 -172 8 -307
21 -316 8 -5 8 -9 0 -14 -9 -5 -9 -10 0 -21 6 -7 9 -21 5 -29 -3 -9 1 -18 10
-22 13 -5 13 -7 2 -14 -10 -7 -10 -9 0 -9 6 0 12 -5 12 -11 0 -5 -6 -7 -12 -3
-9 5 -9 2 1 -9 7 -9 10 -17 5 -17 -5 0 -1 -5 9 -11 14 -8 16 -14 6 -25 -9 -11
-9 -14 0 -14 7 0 9 -5 6 -10 -4 -6 -1 -17 5 -25 10 -12 10 -15 -1 -15 -10 -1
-9 -4 3 -11 11 -6 15 -16 11 -26 -4 -9 -2 -14 3 -10 6 3 8 -8 6 -29 -3 -22 0
-34 8 -34 7 0 10 -8 7 -20 -3 -11 -1 -23 4 -26 5 -3 7 -10 4 -15 -4 -5 0 -9 7
-9 9 0 9 -3 -2 -10 -13 -9 -13 -10 0 -11 8 -1 19 -1 24 0 5 1 5 -4 0 -11 -15
-19 -11 -53 4 -50 8 1 11 -2 7 -8 -3 -6 -10 -8 -14 -6 -4 3 -8 -1 -8 -9 0 -8
4 -12 8 -9 4 2 10 0 14 -6 3 -5 -2 -10 -12 -11 -15 0 -15 -2 -3 -7 8 -4 15
-17 14 -30 -1 -12 3 -22 9 -22 6 0 7 -3 4 -7 -4 -3 -1 -13 6 -21 10 -13 9 -15
-7 -8 -18 6 -19 5 -5 -11 8 -10 14 -30 13 -46 0 -15 3 -27 8 -27 5 0 6 -4 3
-10 -3 -5 -1 -10 6 -10 7 0 4 -7 -7 -15 -18 -15 -18 -15 0 -8 14 5 17 3 11 -6
-4 -8 -2 -17 6 -22 9 -5 10 -9 2 -9 -13 0 -12 -25 2 -37 4 -4 5 -2 0 6 -5 9
-4 12 2 8 6 -4 8 -18 5 -32 -3 -16 0 -25 9 -25 10 0 10 -3 2 -11 -13 -13 -5
-42 9 -33 6 4 5 -4 -2 -16 -7 -12 -8 -20 -2 -16 5 3 12 -1 16 -9 3 -8 0 -15
-6 -15 -7 0 -3 -7 8 -16 10 -8 12 -12 4 -8 -13 7 -13 5 -2 -9 8 -9 11 -21 7
-27 -3 -5 -1 -10 6 -10 7 0 9 -3 6 -7 -4 -3 -1 -13 6 -21 9 -13 9 -14 0 -8
-19 11 -15 -5 4 -20 10 -7 13 -14 6 -14 -8 0 -8 -6 0 -24 7 -13 14 -23 18 -21
3 2 5 -10 4 -26 -1 -17 4 -33 11 -36 8 -3 11 -18 9 -41 -1 -20 -1 -31 2 -24 9
23 20 12 18 -18 -1 -19 3 -30 12 -30 7 0 13 -5 13 -11 0 -5 -5 -7 -11 -4 -12
8 11 -37 25 -46 5 -4 6 -14 3 -23 -4 -9 -2 -16 4 -16 6 0 7 -4 4 -10 -3 -5 -1
-10 4 -10 6 0 11 -9 11 -20 0 -11 5 -20 10 -20 6 0 10 -5 10 -11 0 -5 -6 -7
-13 -4 -6 4 -5 1 4 -7 9 -7 14 -19 11 -27 -3 -9 0 -12 10 -9 11 5 14 0 10 -19
-3 -18 -1 -24 6 -19 8 5 10 2 6 -8 -3 -9 -1 -16 5 -16 6 0 8 -6 5 -14 -3 -8 4
-28 16 -44 12 -16 23 -37 24 -48 2 -10 9 -18 16 -16 7 2 10 -3 7 -11 -3 -7 3
-24 13 -37 10 -13 15 -30 12 -39 -4 -10 -1 -12 8 -6 9 6 12 4 8 -6 -6 -16 16
-41 28 -31 5 4 2 -1 -5 -10 -12 -17 -8 -23 12 -19 5 1 6 -3 3 -8 -4 -5 1 -16
9 -24 11 -12 12 -17 2 -20 -7 -3 -4 -6 6 -6 10 -1 15 -6 12 -11 -3 -6 0 -13 8
-16 8 -3 13 -16 11 -30 -2 -22 0 -24 14 -12 9 7 14 8 9 3 -4 -4 1 -17 10 -27
16 -18 16 -19 -3 -12 -16 5 -16 4 3 -10 12 -9 30 -33 40 -54 9 -20 24 -43 33
-50 13 -11 13 -12 0 -7 -10 4 -9 2 2 -8 10 -8 15 -17 11 -20 -3 -4 -1 -7 6 -7
7 0 9 -5 6 -10 -3 -6 1 -10 10 -10 9 0 14 -3 11 -8 -2 -4 2 -18 11 -32 8 -14
12 -17 9 -7 -3 11 -2 15 4 12 6 -3 10 -15 10 -26 0 -10 5 -19 10 -19 6 0 10
-6 10 -13 0 -7 9 -18 21 -25 16 -11 18 -16 9 -28 -10 -11 -9 -14 9 -14 12 0
19 -4 16 -10 -3 -6 1 -13 9 -16 9 -3 13 -10 10 -15 -3 -5 2 -12 10 -15 9 -3
13 -10 10 -15 -3 -5 3 -9 13 -10 10 0 13 -3 6 -5 -8 -4 -7 -11 5 -23 9 -10 20
-16 24 -14 4 2 5 -4 1 -13 -4 -12 -3 -15 5 -10 7 4 12 1 12 -8 0 -9 5 -16 10
-16 6 0 10 -7 10 -16 0 -8 4 -13 9 -10 5 3 12 -5 15 -19 4 -14 12 -24 19 -22
6 1 11 -4 9 -10 -1 -7 3 -13 9 -13 5 0 7 -5 4 -10 -4 -6 -2 -9 3 -8 6 2 11 -1
13 -7 4 -15 26 -35 39 -35 6 0 8 -4 5 -10 -3 -5 -2 -10 4 -10 5 0 13 -9 16
-20 3 -11 13 -20 21 -20 8 0 14 -6 14 -13 0 -7 9 -18 20 -25 11 -7 20 -19 20
-28 0 -8 5 -12 10 -9 6 3 10 -1 10 -9 0 -9 4 -16 9 -16 5 0 13 -9 16 -20 4
-11 10 -18 13 -16 4 2 16 -2 27 -10 13 -10 15 -14 4 -14 -10 -1 -9 -4 4 -11
32 -19 87 -73 87 -86 0 -7 3 -12 7 -12 5 1 15 1 23 0 12 -1 13 -3 1 -10 -11
-7 -9 -10 8 -16 12 -3 18 -11 15 -17 -5 -7 -1 -9 9 -5 10 4 16 2 14 -6 -1 -7
4 -11 10 -9 7 1 13 -5 13 -13 0 -8 7 -15 17 -15 9 0 14 -3 10 -6 -7 -8 12 -28
36 -37 9 -3 17 -11 17 -17 0 -6 4 -9 9 -5 5 3 13 0 17 -7 4 -7 4 -10 -1 -6 -4
4 -14 0 -22 -10 -14 -16 -14 -16 -9 2 5 15 4 17 -8 7 -8 -6 -19 -10 -26 -9 -7
2 -15 -3 -17 -9 -4 -10 621 -13 3101 -13 1708 0 3106 4 3106 8 0 17 -13 22
-27 11 -7 -6 -13 -8 -13 -3 0 5 -43 9 -95 9 -78 0 -95 3 -95 15 0 13 -1 13
-11 0 -8 -12 -12 -12 -16 -2 -4 10 -9 9 -19 -5 -8 -10 -14 -13 -13 -8 3 22 -2
29 -11 15 -8 -12 -10 -12 -10 -1 0 11 -3 11 -17 0 -13 -11 -15 -11 -9 -1 6 10
1 12 -21 9 -15 -2 -40 -1 -54 3 -14 4 -33 3 -42 -2 -13 -7 -17 -5 -18 9 0 10
-3 13 -6 6 -7 -18 -23 -16 -39 5 -11 13 -13 14 -9 1 4 -12 0 -15 -17 -13 -13
1 -29 3 -36 3 -7 1 -10 7 -7 14 4 6 -1 3 -9 -7 -9 -11 -16 -15 -16 -10 0 6
-20 11 -45 11 -25 0 -53 7 -62 14 -12 10 -15 10 -9 2 4 -7 3 -13 -1 -13 -5 0
-15 6 -22 13 -11 10 -13 10 -7 0 8 -14 -6 -18 -18 -6 -11 12 -56 11 -56 -1 0
-6 -4 -5 -9 3 -8 13 -12 13 -27 0 -15 -12 -16 -12 -9 0 6 11 3 13 -12 9 -11
-3 -28 -1 -37 4 -11 6 -16 5 -16 -4 0 -9 -3 -9 -10 2 -7 11 -10 11 -10 2 0 -7
-5 -10 -10 -7 -21 13 -60 15 -60 4 0 -7 -4 -8 -12 -2 -7 5 -28 8 -45 8 -18 -1
-33 2 -33 5 0 4 -16 6 -35 3 -24 -2 -35 1 -35 9 -1 8 -6 6 -14 -5 -9 -11 -15
-14 -18 -6 -2 7 -30 11 -76 11 -39 0 -70 4 -67 8 6 10 -15 8 -32 -3 -8 -5 -13
-3 -13 5 0 10 -2 10 -9 -1 -7 -11 -9 -11 -14 0 -5 12 -7 12 -15 0 -6 -8 -15
-10 -23 -5 -23 14 -49 15 -50 1 0 -6 -4 -3 -9 8 -6 13 -9 15 -9 5 -1 -13 -2
-13 -11 0 -8 12 -10 12 -10 -5 -1 -16 -2 -17 -9 -5 -7 11 -26 15 -68 14 l-60
0 7 37 c5 25 3 40 -4 42 -8 3 -8 8 0 18 6 8 9 29 7 47 -2 20 1 31 7 27 6 -3 7
1 4 9 -3 9 -11 13 -18 9 -6 -4 -4 1 4 11 15 19 23 49 10 41 -9 -6 -5 138 4
154 4 6 4 11 -1 11 -9 0 -8 74 2 89 3 6 1 11 -5 11 -7 0 -8 6 -1 19 6 10 8 30
5 45 -3 21 -1 26 8 20 7 -4 4 3 -7 16 -11 13 -15 20 -9 17 13 -7 27 17 16 27
-9 10 -9 66 0 66 5 0 6 5 3 10 -4 6 -12 7 -18 3 -7 -4 -6 0 2 10 7 9 11 24 7
32 -4 11 -2 14 7 9 8 -5 7 -2 -2 9 -12 15 -11 17 5 18 18 0 18 1 -1 9 -11 5
-15 9 -8 9 13 1 12 26 -2 38 -4 4 -5 2 0 -6 6 -10 4 -12 -5 -6 -10 6 -9 11 4
21 13 9 14 13 4 17 -10 4 -10 6 1 6 11 1 11 4 1 16 -11 13 -10 14 5 9 14 -6
16 -4 9 7 -13 21 -14 39 -1 39 7 0 5 5 -3 10 -8 5 -10 10 -5 10 6 0 3 5 -5 10
-11 7 -11 10 -2 10 7 0 10 5 7 10 -3 6 0 10 7 10 9 0 9 3 -2 10 -8 5 -11 10
-6 10 5 0 2 8 -5 17 -8 9 -9 14 -3 10 7 -4 14 0 18 8 3 8 0 17 -6 21 -7 4 -6
9 3 15 12 7 12 9 0 9 -10 0 -11 3 -2 13 8 10 7 17 -1 25 -8 8 -8 12 -1 12 13
0 12 32 -2 42 -6 5 -5 8 4 8 11 0 11 3 1 15 -7 8 -8 15 -3 15 5 0 9 9 9 20 0
11 -4 20 -8 20 -5 0 -4 10 3 21 8 16 8 20 -1 14 -9 -5 -9 -3 -2 11 5 11 8 27
7 36 -2 10 4 23 13 28 14 9 12 10 -8 4 -20 -5 -22 -4 -13 6 6 7 9 19 6 28 -4
10 -2 13 5 8 8 -5 10 -2 6 8 -3 9 -10 13 -15 10 -5 -3 -6 2 -3 10 3 9 9 14 13
11 4 -2 8 2 8 10 0 8 -4 12 -9 9 -4 -3 -8 0 -8 5 0 6 6 11 13 11 8 0 7 4 -3
10 -13 9 -12 13 5 26 19 16 19 16 -5 9 -20 -6 -22 -5 -13 5 6 7 9 19 6 28 -5
11 -3 13 7 7 9 -5 11 -4 6 3 -12 20 -15 52 -5 52 6 0 6 8 -1 20 -8 15 -8 20 1
20 9 0 9 3 0 14 -9 11 -9 15 0 18 9 3 9 9 1 24 -7 13 -7 26 -1 35 12 19 11 32
-1 24 -5 -3 -10 -1 -10 4 0 6 5 11 11 11 5 0 7 5 3 12 -5 7 -8 27 -9 45 0 27
2 30 15 20 11 -9 10 -5 -3 16 -12 18 -14 27 -5 27 9 0 9 3 1 11 -14 14 -5 41
11 32 6 -4 5 1 -3 10 -11 14 -11 17 0 17 11 0 11 2 -1 10 -13 9 -13 10 0 10 9
0 11 3 4 8 -13 9 -13 52 1 52 5 0 4 4 -4 9 -12 8 -12 12 -2 24 9 12 9 16 -1
19 -11 4 -11 8 0 20 10 13 10 17 0 20 -10 4 -10 8 1 21 7 10 9 17 4 17 -11 0
-10 81 1 99 4 6 2 11 -4 11 -6 0 -8 5 -5 11 11 16 13 59 4 53 -12 -7 -11 3 2
28 8 15 8 19 0 14 -14 -9 -14 9 0 36 9 16 8 19 -2 13 -9 -6 -10 -3 -5 11 5 10
8 24 7 29 -2 31 -10 65 -17 76 -4 8 -3 9 4 5 15 -9 15 -1 2 25 -8 14 -7 19 1
19 9 0 9 3 0 14 -9 11 -9 15 0 18 9 3 9 9 1 24 -6 12 -7 26 -2 34 5 8 4 22 -1
32 -5 10 -7 18 -3 18 3 0 1 6 -5 13 -6 8 -8 17 -4 20 9 10 12 78 3 72 -4 -3
-5 10 -1 28 11 48 11 50 -7 71 -9 11 -12 16 -5 13 7 -5 9 0 6 13 -3 11 -10 17
-17 13 -6 -4 -5 1 3 10 9 11 10 17 2 17 -6 0 -11 5 -11 11 0 5 6 7 13 3 6 -4
1 5 -13 21 -14 16 -19 25 -12 21 6 -4 12 -2 12 3 0 6 -5 11 -11 11 -5 0 -8 4
-4 9 3 5 0 13 -6 17 -8 4 -7 9 2 15 11 7 11 9 -2 9 -11 0 -16 8 -15 23 0 12
-4 21 -10 20 -6 -1 -11 4 -11 12 0 8 5 11 11 8 6 -4 5 0 -1 8 -7 9 -11 25 -8
37 2 14 -1 19 -10 16 -9 -4 -12 1 -11 13 2 10 -3 31 -11 47 -8 16 -13 39 -10
52 2 13 1 23 -2 22 -19 -2 -22 4 -10 19 8 9 9 14 3 10 -7 -4 -14 0 -18 8 -3 8
0 15 7 15 8 1 7 5 -3 13 -20 16 -24 38 -8 48 10 7 9 9 -3 9 -11 0 -15 8 -14
25 2 14 -1 25 -7 25 -6 0 -5 6 2 15 10 12 9 15 -5 15 -14 0 -15 3 -5 15 10 12
10 15 -1 15 -12 0 -12 2 0 9 9 6 10 11 2 15 -6 4 -9 12 -6 17 4 5 0 9 -7 9 -9
0 -9 3 2 10 13 9 13 10 0 10 -13 0 -13 1 0 10 12 8 12 10 1 10 -11 0 -11 3 0
17 8 10 9 14 2 10 -6 -4 -14 -3 -18 3 -3 5 -2 10 3 10 6 0 7 14 3 33 -4 17 -6
44 -5 60 2 17 -1 25 -8 21 -6 -4 -6 2 1 15 9 16 9 21 0 21 -8 0 -8 4 1 15 7 8
8 15 3 15 -6 0 -11 30 -11 68 0 37 -1 72 -2 77 -6 33 -4 203 3 218 5 11 3 17
-5 18 -7 0 -4 4 7 9 18 8 18 9 2 9 -10 1 -15 6 -12 11 4 6 11 7 17 4 7 -5 8
-2 2 7 -12 20 -14 40 -3 34 5 -4 7 8 5 24 -2 17 1 31 6 31 5 0 4 9 -2 19 -7
14 -6 23 3 33 8 7 13 21 11 31 -1 9 2 20 7 23 6 3 5 12 -3 22 -8 9 -8 13 -1 9
12 -7 36 47 26 57 -4 3 -1 6 6 6 8 0 11 8 8 20 -3 11 -2 18 2 16 4 -3 20 24
36 60 17 35 35 64 40 64 6 0 3 5 -5 10 -13 8 -12 10 3 10 9 0 17 6 17 14 0 7
8 20 18 27 14 11 15 11 5 -1 -7 -8 -13 -19 -13 -24 1 -13 23 24 26 42 3 19 25
43 34 37 5 -3 11 -1 15 5 3 5 0 10 -7 11 -7 0 -2 5 11 10 15 6 21 15 17 24 -3
8 -2 14 2 14 21 -3 32 3 32 17 0 9 5 12 12 8 6 -4 8 -3 4 4 -3 6 1 18 10 26 8
9 12 16 7 16 -4 0 0 7 10 14 10 8 19 18 20 23 1 4 5 7 8 6 4 -1 4 7 1 19 -3
14 -1 19 6 14 8 -5 12 1 12 18 0 14 8 30 18 35 9 6 13 11 8 11 -5 0 -2 8 5 17
12 14 12 16 -1 9 -8 -4 -7 -1 4 8 10 8 15 20 10 27 -4 7 -3 10 3 6 6 -4 14 0
17 9 3 8 2 12 -4 9 -6 -3 -7 1 -4 9 3 9 9 14 13 12 6 -4 10 13 12 57 0 9 4 17
9 17 5 0 7 9 5 20 -2 11 1 20 6 20 6 0 8 4 5 9 -4 5 0 12 6 14 9 4 9 6 1 6 -6
1 -9 10 -6 21 3 11 8 18 12 15 4 -2 5 10 3 27 -4 24 -2 29 9 23 11 -7 12 -6 2
7 -7 8 -10 18 -6 21 12 13 12 58 0 51 -9 -5 -9 -4 0 6 6 7 9 19 6 28 -4 9 -2
13 4 9 5 -3 10 0 10 8 0 8 -3 12 -7 10 -3 -2 -6 5 -6 16 0 10 5 19 11 19 5 0
1 6 -9 12 -18 10 -18 11 5 24 13 7 19 13 13 14 -7 0 -15 7 -18 16 -3 8 -2 12
4 9 6 -3 10 3 10 14 0 11 -5 23 -11 26 -6 5 -4 12 8 22 10 8 13 12 6 9 -6 -4
-14 -2 -18 4 -3 5 0 10 7 10 9 0 9 3 -2 10 -13 9 -13 10 0 10 11 1 10 4 -4 15
-16 12 -17 15 -4 15 11 0 15 6 11 20 -3 11 -10 17 -17 13 -6 -4 -5 1 2 10 8 9
10 22 6 29 -10 15 -15 35 -17 61 -1 9 -5 17 -9 17 -4 0 -8 7 -8 16 0 9 5 12
13 8 7 -4 9 -3 4 2 -5 5 -14 9 -20 9 -7 0 -11 8 -11 18 1 9 -5 17 -13 17 -8 0
-12 3 -10 8 2 4 -10 21 -26 37 -16 17 -26 24 -23 17 6 -10 2 -10 -18 -1 -14 7
-23 16 -20 20 2 5 -11 7 -31 5 -20 -1 -38 1 -41 5 -5 9 -24 7 -43 -5 -8 -5
-16 -4 -21 4 -5 8 -10 9 -14 2 -3 -6 -17 -9 -31 -7 -14 1 -25 -2 -25 -8 0 -5
-7 -4 -15 3 -13 11 -14 10 -9 -3 4 -11 0 -15 -13 -12 -10 1 -28 -3 -40 -11
-17 -10 -23 -11 -26 -1 -3 7 -6 5 -6 -5 -1 -12 -6 -15 -18 -11 -11 4 -14 3 -9
-5 5 -8 -1 -12 -18 -12 -14 0 -26 -4 -26 -8 0 -5 -18 -15 -40 -22 -21 -7 -37
-17 -34 -22 3 -5 -6 -7 -20 -4 -16 3 -25 0 -23 -7 1 -7 -6 -11 -15 -11 -10 1
-16 -3 -15 -10 1 -6 -6 -10 -15 -10 -10 1 -18 -2 -18 -8 0 -5 -5 -6 -10 -3 -6
4 -9 1 -8 -7 2 -7 -3 -12 -9 -10 -7 1 -23 -7 -35 -18 -59 -53 -61 -55 -53 -40
7 12 6 13 -7 3 -8 -7 -18 -10 -21 -6 -4 3 -7 -1 -7 -10 0 -9 -5 -19 -12 -23
-7 -5 -8 -3 -3 7 7 11 5 11 -11 -1 -10 -8 -25 -21 -32 -28 -8 -7 -18 -9 -24
-6 -6 4 -8 2 -5 -3 6 -10 -12 -23 -29 -22 -3 0 -11 -7 -18 -17 -8 -11 -18 -14
-26 -9 -9 6 -11 4 -5 -5 6 -10 4 -12 -8 -7 -9 3 -21 -1 -29 -11 -12 -15 -11
-16 5 -3 9 7 17 9 17 4 0 -5 -12 -15 -26 -21 -15 -8 -22 -17 -18 -25 5 -9 4
-9 -6 0 -11 10 -16 9 -26 -4 -10 -15 -14 -16 -30 -3 -16 13 -17 13 -9 0 8 -13
7 -13 -10 0 -10 8 -19 13 -21 10 -1 -3 -6 -1 -11 4 -5 5 -2 6 6 1 9 -5 12 -4
7 3 -4 7 -16 12 -27 12 -10 0 -19 5 -19 11 0 5 -5 7 -12 3 -7 -5 -9 -2 -6 8 4
8 0 15 -8 15 -7 0 -11 -4 -8 -9 3 -4 0 -8 -5 -8 -6 0 -11 6 -11 14 0 10 -7 13
-20 11 -11 -2 -18 0 -15 6 4 5 -3 9 -14 9 -13 0 -21 7 -22 18 0 10 -3 12 -6 5
-3 -9 -11 -8 -31 5 -14 9 -23 11 -19 5 6 -9 3 -11 -7 -7 -9 3 -13 11 -10 16 4
6 -1 8 -14 4 -11 -4 -23 -2 -27 4 -3 6 -11 7 -17 4 -8 -5 -9 -1 -4 11 6 15 4
16 -10 5 -9 -9 -18 -10 -22 -4 -4 5 -24 9 -44 9 -21 -1 -34 3 -31 9 4 5 -1 7
-9 3 -9 -3 -21 0 -28 6 -10 9 -11 9 -5 -3 7 -12 6 -13 -6 -4 -8 6 -23 10 -34
8 -28 -6 -47 -6 -70 -1 -11 2 -23 -1 -27 -7 -5 -7 -8 -7 -8 -1 0 6 -12 10 -27
9 -16 -1 -34 -3 -41 -3 -7 -1 -10 -5 -7 -11 9 -15 -2 -12 -19 6 -14 13 -16 13
-16 1 0 -11 -11 -15 -39 -13 -33 1 -37 -1 -28 -13 9 -12 9 -13 0 -7 -8 4 -13
2 -13 -6 0 -10 -2 -10 -9 1 -6 9 -11 10 -15 2 -4 -6 -12 -9 -17 -6 -5 4 -9 -2
-9 -12 0 -14 -2 -15 -9 -4 -6 9 -11 10 -15 2 -4 -6 -12 -9 -17 -6 -5 4 -12 -1
-15 -9 -3 -9 -14 -16 -24 -16 -10 0 -26 -7 -34 -16 -9 -8 -16 -13 -16 -9 0 3
-10 -3 -22 -15 -12 -11 -28 -20 -35 -20 -7 0 -17 -9 -23 -21 -7 -12 -18 -18
-26 -15 -8 3 -12 2 -9 -4 3 -5 -2 -15 -10 -22 -9 -7 -25 -20 -35 -30 -10 -9
-21 -14 -24 -11 -3 4 -6 0 -6 -7 0 -15 -46 -60 -62 -60 -6 0 -9 -3 -5 -6 8 -9
-16 -33 -27 -26 -5 3 -7 -2 -3 -11 4 -10 1 -17 -6 -17 -17 0 -39 -38 -31 -52
4 -6 3 -9 -2 -6 -5 3 -18 -4 -29 -15 -12 -11 -14 -17 -5 -13 8 4 6 0 -4 -8
-11 -9 -16 -16 -10 -16 5 0 -2 -10 -16 -21 -14 -11 -18 -17 -11 -13 9 5 6 -5
-7 -23 -12 -17 -22 -38 -22 -47 0 -9 -6 -19 -14 -22 -8 -3 -13 -16 -11 -30 1
-14 0 -22 -3 -19 -3 2 -11 -3 -18 -13 -9 -12 -9 -22 -2 -36 6 -12 6 -16 0 -12
-11 6 -22 -23 -27 -71 -1 -17 -6 -37 -10 -44 -5 -7 -4 -10 1 -6 5 3 10 -3 10
-13 0 -10 -3 -18 -6 -18 -20 2 -21 -4 -4 -18 15 -13 16 -15 2 -10 -12 3 -15 1
-11 -9 3 -8 8 -13 12 -11 3 2 6 -20 5 -50 -1 -30 3 -54 9 -54 5 0 4 -6 -2 -14
-9 -11 -9 -16 0 -22 8 -5 9 -3 4 6 -5 8 -4 11 2 7 6 -4 9 -23 7 -43 -2 -29 0
-34 13 -30 13 5 13 4 4 -8 -9 -11 -8 -15 4 -20 12 -4 13 -10 6 -24 -8 -14 -5
-23 10 -36 17 -14 18 -20 8 -32 -10 -12 -9 -13 6 -8 10 4 16 3 13 -2 -8 -13
10 -56 21 -49 6 3 8 -5 5 -20 -3 -17 2 -28 15 -37 10 -6 17 -18 14 -25 -3 -8
3 -23 13 -35 11 -12 13 -18 5 -13 -10 5 -12 4 -7 -3 4 -7 13 -12 21 -12 8 0
12 -9 10 -25 -1 -14 0 -23 3 -20 8 8 34 -34 27 -45 -3 -6 2 -10 12 -11 11 0
13 -3 5 -6 -8 -3 -5 -11 10 -25 13 -11 17 -16 9 -12 -9 5 -12 3 -7 -4 4 -7 14
-12 23 -12 13 0 13 -3 3 -15 -9 -10 -9 -15 -1 -15 6 0 11 -7 11 -16 0 -8 5
-12 10 -9 6 3 10 -3 10 -15 0 -12 5 -18 10 -15 6 3 10 -3 10 -14 0 -12 5 -21
10 -21 6 0 10 -7 10 -15 0 -22 41 -65 54 -58 7 4 6 1 -1 -8 -10 -12 -8 -17 8
-27 10 -7 19 -22 19 -35 0 -18 2 -19 10 -7 8 13 10 13 10 -2 0 -9 8 -22 18
-27 9 -6 14 -11 10 -11 -4 0 0 -9 9 -19 9 -11 20 -18 24 -15 4 2 5 -5 2 -16
-3 -12 -2 -20 3 -18 14 5 55 -42 48 -54 -4 -7 -3 -8 5 -4 6 4 14 0 17 -8 3 -9
10 -13 15 -10 5 3 9 -2 9 -10 0 -8 9 -18 20 -21 11 -3 20 -12 20 -20 0 -14 27
-28 40 -20 4 3 6 -4 3 -15 -3 -11 0 -20 6 -20 6 0 13 0 16 0 3 0 19 -12 36
-27 17 -16 36 -28 42 -28 7 0 18 -8 25 -18 7 -9 18 -15 23 -12 5 4 9 -1 9 -10
0 -9 5 -13 11 -10 5 4 20 -1 31 -12 12 -10 18 -12 14 -6 -5 9 -2 11 8 7 9 -3
16 -11 16 -16 0 -6 7 -8 15 -5 8 4 17 2 21 -4 3 -6 12 -8 19 -5 7 2 18 -1 24
-7 9 -9 14 -8 21 3 7 11 10 12 10 2 0 -8 6 -12 13 -9 6 2 20 0 31 -5 12 -7 16
-7 12 0 -3 6 -2 13 4 17 5 3 10 1 10 -4 0 -13 22 -10 32 4 5 6 8 4 8 -4 0 -11
4 -10 16 5 8 10 12 12 8 4 -5 -10 1 -8 16 5 13 11 20 14 15 6 -5 -10 -4 -12 3
-7 7 4 12 15 12 24 0 13 2 14 9 3 6 -9 11 -10 15 -2 4 6 4 11 -1 11 -4 1 4 8
20 16 15 8 27 21 27 29 0 8 9 20 19 27 14 9 17 16 10 24 -7 8 -6 15 2 20 8 4
9 3 5 -4 -4 -7 -3 -12 2 -12 14 0 21 48 8 54 -6 2 -3 5 6 5 11 1 16 8 13 21
-2 11 0 20 4 20 4 0 8 12 8 28 1 15 4 37 7 49 2 13 0 25 -5 28 -5 4 -6 12 -2
18 11 19 11 47 -1 48 -6 0 -2 4 9 9 11 5 15 9 8 9 -7 1 -10 16 -9 41 2 23 -2
44 -7 47 -6 4 -7 1 -2 -7 5 -8 4 -11 -3 -6 -6 4 -9 13 -6 21 4 8 11 12 18 8 6
-4 5 1 -3 11 -8 9 -16 35 -17 58 -2 23 -9 45 -16 50 -10 6 -10 8 1 8 11 0 10
4 -3 19 -12 13 -14 21 -6 26 8 5 6 13 -6 26 -13 15 -14 19 -3 19 12 0 12 2 0
9 -7 5 -10 14 -7 20 4 6 1 14 -7 17 -9 3 -13 16 -12 35 2 23 0 27 -10 19 -10
-9 -13 -7 -10 7 1 10 -2 24 -8 31 -6 8 -5 12 4 12 10 1 8 5 -5 15 -11 9 -17
22 -13 34 4 15 1 18 -12 14 -13 -5 -14 -3 -3 8 6 7 12 18 12 23 0 6 -4 5 -9
-3 -6 -9 -11 -10 -15 -2 -4 6 -2 11 4 11 6 0 8 5 5 10 -4 6 -10 8 -14 6 -4 -3
-8 2 -8 10 0 10 9 6 29 -13 15 -15 28 -33 28 -40 0 -7 5 -13 11 -13 5 0 8 -4
5 -9 -3 -5 1 -11 9 -15 8 -3 15 -15 15 -26 0 -12 4 -19 9 -16 9 6 31 -36 31
-62 0 -15 2 -15 10 -2 8 12 10 11 10 -7 0 -13 5 -23 11 -23 5 0 7 -5 4 -10 -3
-6 0 -12 7 -15 8 -3 15 -15 15 -28 1 -12 7 -23 13 -25 5 -2 10 -12 10 -23 0
-10 4 -19 9 -19 5 0 7 -10 3 -22 -4 -16 -2 -19 9 -13 12 8 12 6 0 -8 -12 -15
-11 -17 3 -17 10 0 15 -4 11 -9 -3 -5 0 -13 6 -17 8 -4 7 -9 -2 -15 -11 -6
-10 -9 4 -15 9 -3 17 -10 17 -16 0 -5 -4 -7 -9 -4 -5 3 -2 -13 5 -35 8 -22 12
-45 9 -50 -4 -5 0 -9 7 -9 10 0 10 -2 -1 -9 -7 -5 -9 -11 -4 -14 15 -9 10
-183 -5 -180 -17 4 -10 -21 8 -29 12 -5 11 -7 -4 -7 -14 -1 -16 -4 -7 -15 8
-10 8 -16 -2 -25 -8 -6 -18 -7 -23 -3 -4 4 -2 -2 6 -12 11 -14 11 -18 2 -12
-9 5 -13 3 -12 -5 3 -21 -11 -59 -22 -59 -5 0 -8 -6 -5 -12 2 -7 -5 -21 -15
-30 -11 -9 -18 -18 -17 -20 4 -7 -56 -68 -68 -68 -12 0 -17 -13 -14 -33 1 -5
-3 -6 -9 -2 -6 4 -27 -6 -47 -21 -20 -15 -33 -22 -28 -15 5 9 3 12 -6 9 -8 -3
-13 -10 -12 -16 2 -6 -4 -9 -12 -6 -8 4 -15 2 -15 -4 0 -5 -11 -7 -24 -5 -13
3 -27 0 -30 -6 -4 -6 -12 -11 -17 -11 -6 0 -7 6 -3 13 5 8 3 8 -9 -2 -9 -7
-26 -11 -37 -8 -11 3 -23 1 -26 -5 -4 -6 -10 -5 -15 3 -8 12 -10 12 -18 0 -6
-9 -11 -10 -15 -3 -4 6 -14 8 -23 5 -10 -4 -14 -2 -9 5 9 15 -7 23 -24 10 -12
-8 -11 -8 5 -3 16 5 17 4 8 -6 -10 -10 -17 -9 -32 5 -11 10 -25 15 -31 11 -7
-4 -16 -2 -20 4 -4 7 -14 13 -22 15 -9 1 -24 8 -34 16 -13 11 -16 12 -10 2 7
-11 4 -12 -13 -3 -11 7 -21 16 -21 22 0 6 -4 7 -10 4 -12 -7 -53 19 -43 28 3
4 -4 7 -16 7 -12 0 -20 4 -17 9 3 5 -8 14 -24 21 -16 7 -27 17 -23 23 4 6 0 8
-11 4 -10 -4 -15 -3 -11 3 4 6 -4 14 -17 19 -13 6 -19 10 -15 10 5 1 2 8 -7
16 -8 9 -17 14 -19 13 -4 -4 -37 29 -37 37 0 3 5 3 12 -1 7 -4 8 -3 4 5 -4 6
-12 9 -17 6 -5 -4 -9 1 -9 10 0 9 -4 14 -8 11 -5 -3 -15 7 -23 22 -8 15 -22
34 -31 43 -10 9 -18 21 -18 27 0 6 -8 16 -17 21 -10 6 -14 11 -9 11 5 0 -1 9
-13 19 -16 14 -18 21 -9 24 11 4 10 6 0 6 -7 1 -10 6 -7 11 4 6 1 9 -7 8 -7
-2 -14 7 -16 20 -2 14 -8 20 -15 15 -7 -4 -5 2 3 12 8 10 10 16 4 12 -13 -7
-41 20 -31 29 3 4 -1 13 -9 21 -8 8 -12 19 -9 24 4 5 1 9 -5 9 -7 0 -9 7 -6
16 3 8 2 12 -4 9 -10 -6 -14 8 -10 35 2 17 1 16 -29 -27 -20 -29 -20 -32 -4
-27 16 5 16 4 3 -8 -8 -7 -14 -24 -12 -37 2 -13 -2 -28 -10 -32 -11 -7 -11 -9
1 -9 10 0 11 -3 2 -13 -6 -8 -8 -17 -4 -20 3 -4 2 -7 -4 -7 -6 0 -10 -17 -9
-37 1 -29 -3 -37 -14 -35 -11 3 -9 -2 5 -18 13 -15 14 -19 4 -15 -12 4 -15 -1
-13 -25 1 -17 -3 -30 -9 -30 -7 0 -5 -5 3 -10 12 -8 12 -10 1 -10 -11 0 -11
-3 -1 -15 10 -12 9 -16 -2 -20 -10 -4 -14 -20 -13 -50 0 -29 -3 -41 -10 -35
-7 5 -10 -11 -10 -50 0 -32 -3 -56 -6 -54 -3 2 -7 -9 -8 -24 -1 -15 -3 -38 -6
-52 -2 -14 -4 -29 -4 -33 -1 -5 -5 -6 -9 -3 -5 3 -9 -1 -9 -9 0 -8 4 -12 9 -9
4 3 8 0 8 -5 0 -6 -6 -11 -12 -11 -10 0 -10 -2 0 -9 11 -7 11 -9 -1 -14 -10
-4 -13 -13 -10 -28 5 -17 3 -20 -8 -14 -11 7 -12 6 -2 -6 10 -12 9 -21 -1 -41
-10 -19 -11 -29 -3 -37 8 -8 7 -11 -4 -11 -12 0 -12 -2 1 -10 12 -8 12 -10 1
-10 -9 0 -12 -8 -9 -25 3 -13 1 -22 -3 -19 -10 6 -10 4 -13 -43 -2 -31 -16
-60 -16 -33 0 7 -3 10 -6 7 -4 -4 -1 -13 5 -21 8 -10 9 -16 1 -21 -5 -3 -10
-17 -10 -31 0 -13 -5 -24 -11 -24 -8 0 -8 -5 1 -15 10 -12 10 -15 0 -15 -7 0
-10 -7 -6 -16 3 -8 2 -13 -3 -10 -5 3 -12 -1 -15 -10 -4 -10 -2 -13 6 -8 7 5
8 3 2 -7 -4 -8 -10 -23 -11 -34 -2 -10 -9 -22 -15 -26 -6 -4 -8 -14 -5 -23 3
-8 2 -18 -3 -21 -18 -11 -39 -64 -26 -69 6 -2 3 -5 -6 -5 -11 -1 -16 -8 -13
-21 2 -11 0 -18 -6 -15 -5 4 -9 -1 -9 -9 0 -9 -5 -16 -11 -16 -6 0 -9 -6 -6
-14 3 -8 3 -16 -1 -18 -13 -6 -54 -69 -48 -75 2 -3 -5 -15 -17 -27 -12 -11
-23 -28 -25 -36 -2 -8 -11 -22 -20 -30 -9 -9 -18 -22 -20 -30 -2 -8 -8 -19
-14 -25 -8 -7 -8 -6 -3 4 5 10 4 12 -4 7 -6 -4 -9 -11 -6 -16 3 -5 -5 -20 -17
-32 -13 -13 -23 -27 -23 -33 0 -5 -6 -10 -14 -10 -8 0 -16 -7 -18 -15 -4 -13
-3 -13 6 0 7 10 11 11 11 3 0 -7 -11 -20 -25 -29 -14 -9 -25 -23 -25 -30 0 -8
-4 -14 -10 -14 -5 0 -10 -10 -10 -22 0 -17 -3 -19 -9 -10 -6 10 -10 8 -14 -8
-4 -14 -10 -19 -18 -14 -8 4 -10 3 -5 -4 9 -15 -23 -64 -37 -55 -6 3 -7 1 -3
-5 4 -7 2 -12 -3 -12 -6 0 -11 -7 -11 -15 0 -9 -7 -18 -15 -21 -8 -4 -12 -10
-9 -15 3 -5 0 -9 -6 -9 -6 0 -8 -5 -5 -10 3 -5 1 -10 -4 -10 -6 0 -11 -8 -11
-17 0 -15 -2 -16 -10 -3 -8 13 -10 12 -10 -2 0 -10 -5 -18 -11 -18 -5 0 -8 -4
-4 -9 3 -6 -3 -14 -12 -20 -10 -6 -15 -11 -10 -11 7 0 -2 -12 -50 -65 -20 -22
-21 -26 -7 -21 13 5 10 -3 -11 -25 -17 -18 -23 -29 -15 -25 8 4 4 -2 -10 -14
-14 -12 -18 -18 -10 -14 8 4 4 -5 -10 -21 -14 -16 -18 -24 -10 -20 15 9 -15
-33 -35 -47 -6 -5 -4 -8 5 -8 10 0 11 -3 4 -8 -10 -6 -46 -76 -48 -94 -1 -3
-4 -10 -8 -14 -5 -4 -8 -16 -8 -26 0 -10 -6 -18 -12 -18 -9 0 -8 -4 2 -10 12
-8 12 -10 -5 -10 -15 0 -17 -3 -7 -9 11 -6 10 -10 -3 -15 -14 -5 -15 -9 -6
-20 9 -11 9 -16 0 -22 -8 -5 -10 -3 -5 7 4 8 1 6 -8 -5 -12 -14 -13 -24 -5
-39 8 -14 8 -18 0 -13 -10 6 -16 -13 -12 -36 0 -5 -5 -8 -12 -8 -8 0 -7 -4 3
-10 9 -6 11 -10 3 -10 -7 0 -10 -7 -6 -17 4 -11 3 -14 -5 -9 -8 5 -10 2 -6 -9
4 -8 2 -21 -4 -28 -5 -6 -8 -20 -7 -29 2 -10 -1 -18 -6 -18 -6 0 -7 -5 -4 -10
4 -6 1 -18 -6 -26 -10 -13 -10 -17 0 -24 9 -5 10 -10 2 -14 -6 -4 -9 -20 -7
-36 2 -19 -2 -31 -12 -35 -10 -4 -11 -9 -3 -18 8 -10 7 -17 -2 -27 -10 -10 -9
-11 3 -5 12 7 13 6 3 -6 -7 -9 -8 -20 -3 -29 5 -8 6 -18 3 -23 -6 -10 -15 -63
-14 -82 0 -5 2 -24 4 -42 2 -17 0 -30 -4 -27 -4 2 -9 -3 -13 -11 -3 -8 0 -17
6 -21 7 -5 8 -2 3 6 -6 9 -4 11 5 5 10 -6 10 -10 -3 -20 -14 -10 -14 -12 1
-24 16 -11 16 -12 0 -7 -12 3 -15 1 -11 -9 3 -8 9 -12 14 -9 5 3 5 -5 0 -19
-5 -13 -6 -29 -2 -35 3 -6 6 -38 6 -71 -1 -37 3 -61 9 -61 6 0 4 -5 -4 -10
-12 -8 -12 -10 -1 -10 10 0 11 -3 2 -13 -7 -10 -7 -17 0 -24 6 -6 11 -27 11
-47 0 -20 5 -36 12 -36 7 0 6 -3 -2 -9 -18 -11 -17 -20 5 -37 10 -8 14 -14 8
-13 -22 3 -29 -2 -15 -11 13 -8 13 -12 1 -32 -13 -22 -13 -22 4 -8 17 14 18
13 13 -12 -3 -17 0 -32 8 -39 7 -5 10 -21 8 -35 -2 -13 0 -33 5 -43 7 -11 7
-21 0 -28 -6 -6 -2 -17 11 -31 12 -12 16 -22 10 -22 -6 0 -8 -5 -3 -12 4 -7 6
-21 5 -30 -2 -12 3 -18 15 -18 10 0 14 -4 8 -8 -12 -9 -16 -44 -4 -36 9 5 12
-4 12 -38 0 -10 4 -18 10 -18 6 0 7 -3 4 -7 -4 -3 -1 -13 6 -21 10 -13 9 -15
-3 -8 -8 4 -6 0 5 -9 20 -15 19 -16 -3 -21 -12 -4 -22 -10 -22 -13 0 -9 -31
-8 -47 2 -6 4 -15 2 -19 -4 -5 -8 -3 -9 6 -4 8 5 11 4 7 -3 -8 -12 -32 -10
-44 3 -4 4 -2 5 6 0 10 -5 12 -4 7 4 -4 6 -11 9 -16 6 -16 -10 -60 7 -61 24 0
10 -2 11 -6 4 -3 -10 -8 -9 -20 2 -8 8 -19 13 -23 10 -5 -3 -7 4 -5 16 4 17 2
19 -10 9 -12 -10 -15 -9 -15 5 0 10 -3 15 -7 12 -3 -4 -15 1 -26 10 -12 11
-17 12 -12 4 5 -10 4 -12 -3 -7 -7 4 -12 13 -12 20 0 8 -10 13 -22 12 -17 -1
-22 4 -20 18 2 11 -1 15 -7 11 -6 -3 -11 -1 -11 5 0 6 -4 9 -8 6 -9 -5 -64 28
-63 38 2 16 0 17 -14 6 -13 -11 -14 -10 -10 2 3 8 -2 21 -12 29 -16 13 -17 12
-4 -3 8 -11 9 -18 3 -18 -6 0 -14 9 -17 20 -3 11 -13 20 -21 20 -8 0 -14 4
-14 9 0 5 -9 13 -20 16 -11 3 -20 14 -20 23 0 15 -2 15 -10 2 -8 -13 -10 -12
-10 3 0 10 -8 21 -17 24 -10 4 -23 13 -29 21 -7 9 -16 12 -24 7 -10 -6 -12 -4
-7 9 5 13 1 19 -13 23 -11 3 -20 10 -20 15 0 5 -5 6 -12 2 -7 -5 -9 -2 -5 9 4
12 2 14 -10 10 -9 -4 -14 -2 -11 3 3 5 -3 17 -13 26 -12 12 -19 13 -23 5 -2
-7 -5 -1 -5 12 -1 13 -4 22 -7 18 -3 -3 -16 5 -29 18 -12 14 -25 22 -28 18 -4
-3 -7 1 -7 10 0 9 -4 17 -8 17 -11 0 -54 36 -52 45 0 3 -6 12 -14 20 -11 11
-16 12 -19 2 -3 -6 -6 -2 -6 11 -1 13 -7 22 -17 22 -8 0 -13 3 -11 8 3 4 -1
12 -8 19 -11 10 -15 10 -18 0 -3 -7 -6 -2 -6 9 -1 12 -8 25 -17 28 -9 3 -12
11 -8 18 4 7 4 10 0 6 -11 -9 -36 14 -28 26 3 5 1 6 -5 3 -10 -6 -43 26 -43
43 0 6 -5 10 -11 10 -5 0 -7 5 -3 12 4 7 3 8 -4 4 -8 -4 -16 3 -22 19 -5 14
-16 28 -25 31 -8 3 -12 10 -9 15 3 5 -2 9 -11 9 -9 0 -14 4 -11 9 3 5 -1 11
-9 15 -8 3 -15 13 -15 21 0 9 -4 13 -10 10 -9 -6 -15 30 -11 64 2 7 -2 10 -8
6 -15 -8 -14 8 1 23 9 9 8 13 -5 17 -9 4 -13 13 -10 21 3 8 -1 14 -8 14 -11 0
-11 3 1 10 13 8 13 10 -2 10 -11 0 -15 5 -12 15 4 8 1 15 -6 15 -10 0 -10 3 0
15 10 12 10 15 -2 15 -10 0 -14 8 -13 24 2 14 -3 27 -12 30 -8 3 -12 10 -8 16
3 5 -1 23 -10 40 -9 17 -13 34 -11 39 3 5 -1 14 -9 21 -8 7 -12 16 -9 21 3 5
0 9 -6 9 -6 0 -8 5 -5 10 4 6 -1 22 -10 37 -9 14 -12 22 -5 18 7 -4 5 4 -4 17
-9 14 -13 28 -9 31 3 4 2 7 -3 7 -5 0 -10 12 -11 27 0 15 -6 29 -12 31 -9 3
-8 8 1 20 11 13 11 14 -1 7 -11 -6 -13 -3 -9 13 4 16 2 22 -9 22 -13 0 -13 3
-3 15 10 12 10 15 0 15 -7 0 -10 7 -6 15 3 8 1 15 -4 15 -5 0 -7 7 -4 15 4 8
1 15 -5 15 -6 0 -11 5 -11 11 0 5 6 7 12 3 10 -6 11 -4 1 7 -7 7 -13 23 -13
36 0 13 -4 23 -8 23 -4 0 -9 11 -10 26 -1 17 2 23 11 18 9 -5 9 -4 0 7 -7 7
-13 23 -13 35 0 13 -5 26 -10 29 -7 4 -7 12 0 24 5 10 6 21 3 25 -9 9 -13 32
-16 94 -1 28 -5 52 -9 52 -5 0 -8 5 -8 11 0 5 6 7 13 3 8 -5 8 -2 -2 9 -11 14
-11 17 0 17 10 0 10 3 1 12 -7 7 -12 17 -12 23 0 5 5 3 10 -5 6 -9 10 -10 10
-3 0 6 -5 15 -11 19 -8 4 -7 9 2 16 11 7 11 11 2 15 -7 2 -13 9 -13 14 0 6 5
7 11 3 7 -4 7 1 -1 16 -8 15 -8 20 -1 16 6 -4 11 -2 11 3 0 6 -5 11 -11 11 -8
0 -7 6 2 17 11 13 11 17 1 21 -10 3 -10 7 0 20 7 9 8 13 2 9 -6 -3 -11 0 -11
8 0 8 4 12 9 9 4 -3 8 4 8 16 0 14 -4 19 -13 14 -9 -6 -9 -5 0 7 7 8 13 35 14
59 2 25 7 48 13 52 7 5 5 8 -4 8 -13 0 -13 2 0 10 9 5 13 22 12 44 -1 19 2 37
8 41 8 5 7 12 -2 23 -10 12 -10 14 0 8 8 -5 12 1 12 21 0 16 6 35 13 42 9 11
9 12 0 7 -9 -5 -11 -2 -7 8 3 9 9 14 13 11 4 -2 5 10 3 27 -3 20 -1 29 6 24 6
-4 9 4 7 19 -1 14 2 25 7 25 5 0 6 5 3 10 -3 5 0 10 7 10 9 0 9 3 -2 10 -13 8
-8 14 11 12 3 -1 6 9 5 21 -1 12 6 37 16 55 12 21 14 31 6 27 -7 -4 -5 0 5 8
10 8 17 28 17 48 0 26 3 30 10 19 8 -12 10 -10 11 10 1 14 1 28 0 33 0 4 4 7
10 7 6 0 8 7 5 16 -4 10 -2 13 6 8 7 -5 9 0 6 14 -4 15 -2 19 8 15 10 -4 12 0
8 11 -3 9 -1 16 5 16 6 0 10 3 10 8 -4 21 2 32 14 26 7 -5 7 -1 -3 12 -8 10
-10 16 -6 12 11 -9 35 21 36 44 0 9 7 24 16 32 8 9 16 25 17 35 0 11 4 18 8
15 4 -2 10 8 13 21 4 14 11 23 16 20 5 -3 7 4 5 15 -2 11 0 18 4 15 11 -6 23
24 15 37 -3 5 3 12 15 15 18 5 26 21 22 46 0 4 7 7 16 7 9 0 14 3 10 6 -6 6 2
19 38 56 11 11 13 17 5 12 -14 -7 20 40 55 77 8 9 15 21 15 27 0 6 9 16 19 22
13 6 18 18 16 35 -2 19 1 23 10 15 9 -8 15 -8 20 0 3 5 3 10 -2 10 -4 0 -1 4
7 10 8 5 11 12 7 17 -5 4 -12 1 -17 -7 -5 -8 -13 -15 -17 -15 -8 -1 -64 -55
-73 -71 -3 -5 -9 -8 -14 -6 -5 2 -3 -5 5 -14 9 -12 9 -15 2 -10 -8 4 -13 2
-13 -5 0 -7 -3 -10 -6 -6 -8 8 -54 -34 -54 -50 0 -7 -5 -13 -11 -13 -6 0 -9
-7 -6 -14 4 -11 1 -13 -10 -9 -11 4 -14 2 -9 -5 3 -6 -3 -16 -14 -22 -11 -6
-18 -15 -15 -20 3 -5 -4 -11 -15 -15 -11 -3 -19 -10 -17 -15 1 -5 -7 -16 -18
-25 -11 -9 -13 -13 -5 -10 8 4 -1 -7 -20 -25 -19 -18 -29 -29 -23 -26 9 5 11
2 7 -8 -3 -9 -9 -14 -13 -12 -9 6 -26 -16 -26 -34 0 -8 -6 -14 -13 -12 -7 1
-12 -3 -10 -10 4 -20 -21 -58 -37 -58 -8 0 -14 -3 -14 -7 5 -29 -2 -45 -17
-39 -14 6 -15 4 -4 -9 7 -9 9 -15 4 -13 -5 2 -9 0 -9 -3 0 -4 -9 -16 -19 -28
-11 -12 -15 -21 -10 -21 5 0 1 -5 -8 -10 -9 -6 -15 -19 -13 -30 3 -14 -1 -17
-12 -13 -12 5 -14 1 -8 -17 5 -15 4 -20 -4 -16 -10 7 -12 2 -15 -32 -1 -7 -8
-17 -16 -22 -8 -5 -11 -10 -6 -10 6 0 1 -7 -10 -16 -10 -8 -12 -12 -4 -8 11 6
10 2 -3 -13 -9 -11 -14 -22 -11 -25 3 -4 -2 -17 -10 -30 -9 -14 -13 -28 -9
-33 5 -4 -1 -5 -12 -1 -16 6 -17 5 -8 -5 9 -9 8 -19 -4 -43 -9 -17 -17 -40
-17 -51 0 -11 -7 -25 -15 -31 -11 -9 -12 -12 -1 -19 9 -6 11 -4 5 5 -6 9 -4
11 5 5 10 -6 10 -10 -2 -19 -10 -7 -14 -24 -13 -45 2 -23 0 -29 -6 -20 -9 14
-13 -9 -12 -68 0 -13 -4 -23 -10 -23 -5 0 -4 -7 3 -15 10 -12 9 -16 -4 -21 -9
-3 -16 -10 -16 -16 0 -5 4 -7 8 -4 5 3 9 -1 9 -9 0 -8 -4 -12 -9 -9 -4 3 -8
-2 -8 -11 0 -10 5 -13 13 -9 8 6 8 3 -1 -9 -8 -9 -11 -20 -9 -25 3 -4 2 -14
-3 -22 -5 -9 -4 -20 3 -29 10 -12 9 -13 -2 -6 -11 6 -13 4 -8 -8 3 -9 0 -18
-9 -21 -17 -6 -10 -26 9 -26 7 0 6 4 -3 10 -9 6 -10 10 -3 10 19 0 26 -20 9
-26 -12 -5 -13 -11 -6 -24 7 -13 7 -21 0 -25 -6 -4 -8 -16 -4 -27 3 -12 2 -18
-3 -15 -5 4 -10 0 -10 -8 0 -8 3 -15 7 -15 7 0 4 -54 -5 -77 -2 -7 0 -15 4
-18 5 -3 7 -14 4 -25 -3 -11 -10 -17 -17 -13 -7 4 -7 1 1 -8 10 -12 10 -18 0
-29 -8 -9 -9 -11 0 -6 15 8 29 -14 14 -23 -6 -4 -9 -17 -6 -29 2 -13 -1 -22
-8 -22 -7 0 -4 -5 6 -11 10 -6 14 -15 10 -22 -4 -7 -8 -19 -8 -27 0 -8 -4 -21
-8 -27 -6 -9 -3 -11 9 -6 13 5 15 3 9 -8 -12 -18 -14 -49 -4 -55 4 -2 4 -18
-1 -34 -5 -17 -6 -30 -3 -30 3 0 0 -7 -7 -16 -11 -12 -11 -15 0 -12 7 2 15 -3
18 -11 3 -10 0 -12 -12 -8 -11 5 -15 3 -10 -5 7 -11 15 -58 9 -58 -1 0 -9 8
-16 17 -10 11 -10 14 -1 9 20 -12 14 4 -10 26 -13 11 -16 16 -8 12 8 -4 4 5
-10 21 -14 16 -19 25 -12 21 6 -4 12 -2 12 3 0 6 -5 11 -11 11 -5 0 -8 4 -5 9
3 5 -1 11 -9 15 -8 3 -12 12 -9 19 3 8 -2 21 -10 30 -9 9 -13 23 -10 32 4 9 3
15 -2 14 -21 -4 -25 2 -13 18 10 11 10 14 2 9 -12 -6 -18 5 -14 27 0 4 -4 7
-10 7 -5 0 -8 4 -5 9 4 5 1 11 -4 13 -9 3 -22 43 -23 75 0 7 -4 10 -9 7 -4 -3
-8 7 -8 21 0 14 -4 24 -8 21 -5 -3 -9 1 -9 9 0 8 4 15 9 15 5 0 3 7 -6 15 -8
9 -12 23 -9 32 5 11 3 14 -6 9 -9 -6 -12 -2 -10 10 3 23 -10 56 -20 50 -4 -3
-6 8 -5 25 1 16 -3 29 -9 29 -8 0 -7 3 1 9 11 7 10 9 -3 15 -9 3 -13 11 -10
16 4 6 1 18 -7 27 -8 10 -8 14 -1 10 7 -5 6 4 -3 23 -9 16 -13 34 -9 40 3 5 2
10 -4 10 -6 0 -8 7 -5 15 4 8 1 15 -6 15 -6 0 -8 5 -5 10 4 6 1 18 -7 27 -11
14 -11 16 1 9 8 -5 6 3 -5 20 -11 15 -14 25 -7 21 9 -6 8 2 -2 26 -11 27 -11
37 -2 47 8 9 8 11 1 7 -7 -4 -15 0 -18 9 -3 8 -2 12 4 9 6 -3 7 1 4 9 -3 9
-11 16 -18 16 -7 0 -7 3 -1 8 15 10 18 35 4 26 -9 -5 -10 0 -6 15 7 28 -2 53
-16 44 -6 -3 -7 -1 -3 5 13 21 15 52 4 52 -5 0 -8 7 -5 15 4 8 2 17 -3 20 -6
4 -7 13 -1 23 11 22 3 44 -12 35 -7 -4 -6 1 2 10 9 11 10 17 2 17 -6 0 -11 5
-11 11 0 5 6 7 13 3 9 -6 9 -5 0 7 -7 9 -11 25 -8 37 2 13 -3 26 -13 33 -12 7
-13 9 -2 6 10 -3 15 3 17 21 1 18 -1 21 -8 11 -6 -9 -8 -2 -6 24 3 20 0 37 -5
37 -5 0 -4 9 2 19 5 11 6 22 1 25 -4 3 -8 26 -7 52 1 25 -3 48 -8 51 -5 4 -6
0 -1 -7 5 -9 4 -11 -3 -6 -9 5 -7 15 5 34 14 21 14 24 3 15 -14 -10 -16 -2
-15 63 0 62 -3 73 -15 69 -10 -3 -9 0 3 9 12 9 14 16 8 21 -6 3 -11 11 -11 16
0 6 4 7 10 4 6 -3 7 1 4 9 -3 9 -11 13 -18 9 -6 -4 -5 1 3 10 7 9 10 17 6 17
-4 0 -2 7 5 15 11 13 10 14 -2 10 -9 -4 -15 0 -15 9 0 8 4 13 8 10 12 -7 6 50
-6 58 -6 5 -5 8 3 8 6 0 12 5 12 11 0 5 -4 8 -8 5 -4 -2 -9 5 -9 17 -2 17 0
19 7 7 6 -9 10 -10 10 -3 0 6 -5 15 -10 18 -8 5 -7 12 2 23 11 13 11 14 -2 7
-13 -8 -13 -7 -1 8 9 12 10 17 2 17 -7 0 -9 5 -6 10 4 6 12 8 18 4 7 -3 3 2
-7 10 -18 15 -15 21 8 17 5 -1 5 4 0 11 -12 15 -12 28 -1 45 5 8 3 11 -5 8 -9
-4 -14 2 -14 15 0 11 5 19 12 16 8 -3 9 7 4 35 -5 26 -4 39 4 39 6 0 4 5 -4
10 -8 5 -10 10 -5 10 6 0 10 17 9 37 0 21 3 46 9 57 5 10 5 16 0 13 -5 -3 -9
3 -9 14 0 10 7 19 16 19 9 0 11 3 5 8 -15 11 -17 32 -3 32 6 0 3 7 -8 15 -12
10 -14 14 -5 13 10 -2 15 7 16 27 1 17 5 41 10 54 4 13 3 21 -1 18 -5 -3 -9 5
-9 18 0 13 5 21 12 18 7 -3 10 3 9 14 -2 10 1 24 7 31 6 8 6 12 -2 12 -7 0 -9
5 -6 10 4 6 12 7 18 4 8 -5 8 -3 0 7 -14 14 -18 33 -5 26 4 -3 8 16 9 41 1 26
7 48 13 50 5 2 10 8 10 13 0 6 -4 7 -10 4 -5 -3 -10 -1 -10 4 0 6 7 11 16 11
13 0 14 3 5 14 -8 10 -9 16 -1 21 6 3 8 11 5 16 -4 5 -1 9 4 9 6 0 11 5 11 11
0 5 -6 7 -12 4 -7 -4 -4 1 6 9 11 9 15 16 10 16 -6 0 -11 7 -11 15 0 8 4 12 8
10 4 -3 10 2 13 11 9 24 7 31 -4 14 -6 -9 -10 -10 -10 -3 0 6 6 18 13 25 8 7
13 21 11 31 -1 9 3 17 9 17 8 0 7 3 -1 9 -11 7 -11 9 2 14 9 4 13 13 10 22 -4
9 -1 15 7 15 11 0 11 3 -1 10 -11 7 -11 10 -2 10 7 0 10 5 7 10 -3 6 -1 10 5
10 6 0 10 6 9 13 -3 24 1 38 10 33 4 -3 7 6 5 19 -1 18 3 25 14 25 15 0 15 2
2 10 -13 9 -13 11 0 20 8 5 11 10 6 10 -5 0 -4 6 3 13 8 10 7 17 -2 26 -9 10
-9 11 3 6 11 -4 16 1 17 16 1 12 7 25 14 29 6 4 8 13 5 19 -4 6 -3 11 2 11 6
0 9 8 8 18 0 9 4 16 9 15 6 -1 11 10 10 25 0 17 5 26 13 24 10 -2 10 2 1 19
-8 15 -8 19 0 15 6 -4 11 -2 11 4 0 6 4 8 10 5 6 -3 7 1 4 10 -4 8 0 23 7 32
12 14 12 16 -1 9 -8 -4 -6 0 5 9 11 9 19 23 17 31 -2 8 2 14 8 14 6 0 8 5 5
10 -3 6 -1 10 5 10 7 0 10 7 6 15 -3 10 1 15 12 15 13 0 14 2 3 9 -11 7 -10
11 5 20 11 6 15 11 11 11 -5 0 1 13 13 30 12 16 18 34 15 40 -3 5 -2 10 4 10
5 0 13 9 16 20 4 11 11 18 16 15 5 -3 6 0 4 8 -3 7 3 24 14 36 12 13 18 27 16
32 -3 4 4 14 16 22 15 11 17 16 7 20 -9 4 -7 6 5 6 15 1 22 12 18 34 0 4 4 7
10 7 5 0 7 5 4 10 -3 6 1 13 9 16 9 3 13 10 10 15 -3 5 -1 9 4 9 5 0 12 9 15
21 3 12 10 18 16 14 7 -4 8 0 4 11 -4 11 -3 15 5 10 7 -4 10 1 7 14 -2 11 0
18 6 15 5 -4 9 -1 9 5 0 6 5 8 10 5 6 -4 10 -3 9 2 -3 20 2 34 10 28 6 -3 8 3
6 15 -2 11 1 23 7 26 7 4 8 2 4 -4 -4 -7 -2 -12 3 -12 10 0 16 22 12 43 -1 5
3 6 8 3 5 -3 15 2 22 11 12 14 12 16 -1 8 -12 -7 -13 -6 -3 7 7 8 9 19 5 24
-4 4 1 2 11 -6 16 -11 18 -11 15 1 -2 8 2 13 9 12 6 -1 10 5 8 15 -3 22 6 37
14 23 4 -6 12 -2 20 10 7 12 8 18 2 14 -6 -3 -11 -1 -11 4 0 6 6 11 13 11 8 0
22 10 33 23 l19 22 -25 -20 -25 -20 24 27 c13 15 28 25 34 21 6 -3 7 -1 3 6
-5 8 14 33 51 69 32 31 47 48 33 37 -14 -11 1 6 33 37 39 38 56 62 51 70 -5 8
-1 8 11 -2 11 -9 16 -10 11 -2 -4 7 -2 12 4 12 6 0 9 4 5 9 -3 5 4 12 15 16
11 4 18 11 15 16 -4 5 -2 9 3 9 6 0 20 11 33 25 13 13 29 25 35 25 7 0 14 9
17 21 3 11 15 23 26 26 12 3 21 12 21 20 0 8 4 12 9 8 6 -3 15 4 21 15 7 14
17 19 27 16 13 -5 13 -4 4 8 -9 11 -7 15 10 19 13 4 18 10 13 18 -4 7 -3 10 4
5 6 -3 17 0 25 8 8 8 18 12 22 8 5 -4 5 2 1 12 -6 16 -4 17 9 6 13 -11 16 -11
13 1 -2 8 3 13 10 11 8 -1 11 2 7 7 -6 10 33 37 48 33 4 -1 6 4 5 10 -2 7 3
12 10 10 6 -1 12 3 12 9 0 5 4 7 10 4 6 -3 7 1 4 10 -5 11 -2 14 12 8 13 -5
15 -3 9 7 -6 10 -3 12 12 8 14 -4 20 -1 19 11 0 8 5 16 12 16 7 0 17 7 22 15
5 8 10 11 10 5 0 -5 5 -3 10 5 5 8 14 15 19 15 6 0 17 9 26 20 9 11 14 13 10
5 -4 -8 1 -6 10 5 9 11 19 20 23 20 4 0 6 4 4 9 -2 5 4 6 13 3 8 -4 15 -3 15
2 0 11 50 44 67 44 7 0 13 7 13 14 0 8 8 13 18 11 9 -2 16 2 15 7 -1 6 8 12
20 12 12 1 27 9 33 17 6 9 14 13 17 9 4 -3 7 -1 7 6 0 8 8 11 19 8 15 -3 18
-1 14 11 -5 11 -2 14 10 9 12 -4 17 -1 18 11 0 10 3 12 6 5 2 -7 9 -13 14 -13
6 0 8 4 4 9 -3 5 4 12 15 16 11 4 18 11 15 16 -3 5 0 6 8 3 8 -3 18 0 22 5 3
6 11 9 16 6 5 -4 9 -1 9 5 0 7 7 10 15 6 9 -3 15 0 15 9 0 9 8 12 20 10 11 -2
18 0 15 6 -4 5 -1 9 4 9 23 0 27 2 49 22 12 12 22 16 22 10 0 -7 5 -12 11 -12
6 0 9 6 6 13 -3 8 0 14 6 15 7 1 23 3 36 5 14 2 27 9 29 15 2 7 7 10 12 7 5
-3 16 2 24 11 12 11 16 12 16 2 0 -8 3 -9 8 -3 4 6 17 19 30 29 23 20 23 20
17 0 -7 -19 -6 -19 9 0 9 11 16 16 16 12 0 -5 7 -3 15 4 8 6 19 9 25 5 5 -3
10 2 10 12 0 14 2 15 9 4 6 -9 11 -10 15 -2 4 6 11 9 16 6 4 -3 11 3 14 12 6
15 8 15 16 3 7 -11 10 -12 10 -2 0 7 5 10 10 7 6 -3 10 0 10 7 0 11 2 10 9 0
7 -11 9 -10 14 3 4 9 12 15 19 14 32 -4 49 2 42 14 -5 7 0 6 11 -3 10 -8 16
-10 13 -5 -4 6 5 15 18 22 18 8 22 8 18 0 -5 -8 -2 -7 7 1 7 6 24 12 37 12 16
0 21 4 16 13 -5 8 -2 8 9 -2 11 -9 17 -10 17 -2 0 6 14 11 30 11 17 0 30 5 30
11 0 6 9 9 20 6 11 -3 20 -1 20 3 0 4 13 7 29 6 17 -1 27 2 24 8 -4 5 1 7 10
3 10 -3 17 -2 17 4 0 6 9 8 21 4 15 -5 19 -4 14 5 -6 9 -3 9 13 1 15 -8 23 -8
28 1 5 7 3 8 -6 3 -8 -5 -11 -4 -6 3 3 6 16 9 27 7 12 -3 31 0 41 6 16 9 19 8
12 -3 -6 -10 -5 -11 7 -1 12 10 18 10 28 0 10 -9 11 -8 6 5 -6 14 -2 16 18 12
14 -2 28 0 31 5 3 4 17 7 31 6 14 -2 25 2 25 8 0 7 5 5 10 -3 6 -9 10 -10 10
-3 0 6 9 10 20 8 11 -2 22 0 25 6 4 6 13 5 24 -1 12 -6 22 -5 28 1 6 6 37 13
69 15 106 8 120 10 133 19 9 5 12 4 8 -2 -3 -5 8 -9 28 -9 18 1 30 5 27 10 -3
5 2 7 10 3 9 -3 21 0 28 6 10 9 11 9 6 0 -8 -15 3 -17 24 -3 9 5 19 5 26 -1 8
-7 14 -6 19 1 4 6 12 7 18 2 14 -10 27 -10 44 1 6 4 14 3 17 -2 4 -6 17 -4 34
5 24 12 28 12 40 -3 6 -9 12 -12 12 -7 0 5 11 11 26 12 17 1 23 -2 18 -10 -5
-7 -3 -8 7 -2 22 13 59 16 59 4 0 -7 6 -8 17 -1 10 5 26 5 40 0 13 -5 25 -4
28 1 4 7 13 6 26 0 14 -8 19 -7 19 1 0 8 4 8 13 1 8 -7 18 -7 27 -2 8 5 19 6
25 2 22 -14 97 -23 89 -11 -3 5 0 9 5 9 6 0 11 -8 11 -17 0 -14 2 -15 9 -4 6
9 11 10 15 2 5 -7 13 -8 25 -2 10 6 23 6 31 1 8 -5 21 -5 31 0 9 5 20 6 24 2
3 -4 16 -8 28 -8 44 -3 48 -4 41 -15 -4 -8 0 -8 15 0 11 7 21 8 21 3 0 -4 18
-8 40 -7 29 1 40 -3 40 -14 0 -11 4 -10 14 5 13 17 15 17 21 2 5 -12 15 -15
37 -11 23 3 28 1 22 -9 -6 -10 -4 -10 9 1 11 8 17 9 17 3 0 -7 7 -9 17 -5 10
4 14 2 10 -4 -3 -5 0 -10 8 -10 8 0 11 5 8 10 -4 6 -1 7 8 1 8 -4 20 -9 27
-10 8 -2 21 -6 30 -10 29 -12 42 -13 35 -1 -5 9 -3 9 8 1 8 -5 21 -10 29 -9 8
0 21 -6 28 -15 8 -8 11 -9 7 -2 -3 6 -1 12 4 12 6 0 11 -6 11 -12 0 -10 3 -9
9 1 5 8 10 9 12 2 2 -5 19 -11 37 -13 17 -1 32 -6 32 -10 0 -4 7 -4 17 -1 9 4
14 2 10 -3 -4 -7 6 -9 25 -6 22 3 29 1 24 -7 -4 -6 -4 -11 1 -10 4 1 21 1 36
0 20 -1 26 -5 21 -13 -5 -9 -2 -9 9 1 15 12 21 9 19 -10 -1 -3 13 -3 30 -1 18
3 28 1 25 -5 -5 -8 20 -13 71 -16 7 0 10 -7 7 -15 -4 -12 -3 -13 10 -2 11 9
15 9 15 1 0 -7 5 -9 11 -5 6 3 15 1 19 -5 3 -7 18 -13 31 -15 40 -4 79 -18 79
-27 0 -5 5 -9 11 -9 5 0 7 4 4 10 -3 6 1 7 9 4 9 -3 13 -11 9 -17 -4 -6 0 -8
10 -4 10 4 17 1 17 -6 0 -8 3 -8 9 2 5 8 10 9 12 3 2 -6 11 -12 19 -14 8 -2
21 -9 28 -15 7 -7 23 -13 36 -13 12 0 31 -6 41 -14 10 -7 28 -11 39 -9 15 4
17 2 8 -5 -11 -7 -11 -10 1 -15 16 -6 44 19 33 30 -3 3 -6 0 -6 -8 -1 -10 -5
-9 -15 5 -12 16 -17 17 -30 6 -13 -11 -14 -10 -9 4 4 11 1 16 -10 16 -9 0 -16
6 -16 13 0 8 -4 7 -10 -3 -8 -13 -10 -13 -10 1 0 15 -25 30 -55 33 -16 2 -33
20 -28 30 3 4 -4 5 -16 1 -15 -4 -23 -1 -27 10 -6 13 -8 14 -15 3 -7 -10 -9
-10 -9 0 0 6 -7 12 -15 12 -8 0 -15 5 -15 10 0 6 -9 10 -21 10 -11 0 -18 4
-15 9 4 5 -5 8 -19 6 -17 -1 -25 3 -25 14 0 14 -2 14 -10 1 -8 -13 -10 -13
-10 2 0 12 -6 16 -20 13 -11 -2 -18 0 -15 4 3 5 -2 12 -11 15 -10 4 -13 2 -8
-7 6 -8 3 -8 -9 1 -9 8 -22 10 -29 6 -11 -6 -11 -5 0 8 10 13 9 15 -13 13 -14
-2 -25 1 -25 6 0 5 -9 9 -21 9 -13 0 -18 4 -13 13 5 8 2 8 -9 -2 -9 -7 -17
-10 -17 -5 0 10 -47 34 -67 34 -7 0 -13 4 -13 9 0 5 -10 7 -22 3 -13 -3 -19
-1 -15 5 4 6 0 14 -9 17 -8 3 -12 2 -9 -4 3 -6 1 -10 -4 -10 -6 0 -11 4 -11 9
0 6 -9 8 -20 6 -11 -2 -18 -1 -16 4 3 4 -9 12 -25 18 -24 9 -29 9 -22 -1 4 -6
1 -4 -8 6 -9 9 -19 15 -22 12 -3 -4 -19 1 -36 9 -21 10 -32 12 -40 4 -8 -8
-11 -7 -11 2 0 8 -6 11 -15 7 -9 -3 -18 1 -22 9 -3 9 -10 15 -17 14 -29 -3
-57 2 -52 10 3 5 -8 8 -25 7 -19 -1 -33 3 -36 12 -5 11 -7 11 -14 0 -7 -10 -9
-11 -9 0 0 7 -3 11 -7 9 -5 -3 -19 0 -33 5 -14 6 -40 12 -58 13 -18 2 -40 9
-49 16 -12 10 -15 10 -9 2 4 -7 2 -13 -3 -13 -6 0 -11 5 -11 11 0 7 -12 9 -30
7 -23 -4 -30 -1 -26 9 4 9 2 11 -6 6 -17 -9 -48 -12 -43 -2 3 4 -2 10 -11 13
-8 3 -12 2 -9 -4 9 -14 -9 -12 -23 2 -9 9 -12 9 -12 -3 0 -12 -2 -12 -9 0 -5
8 -17 16 -25 17 -9 1 -14 -1 -11 -5 2 -4 -2 -8 -10 -8 -8 0 -12 4 -9 9 3 4
-13 8 -35 8 -26 0 -41 5 -41 13 0 7 -3 8 -8 2 -11 -16 -47 -11 -44 5 1 10 -3
8 -13 -4 -15 -20 -15 -20 -15 0 0 16 -2 17 -10 4 -5 -8 -10 -10 -10 -5 0 6
-16 10 -35 9 -19 -1 -38 2 -41 7 -3 5 -11 6 -17 2 -19 -12 -37 -12 -37 -1 0 5
-6 8 -12 5 -7 -2 -21 0 -30 5 -12 6 -18 5 -18 -2 0 -7 -6 -8 -17 -2 -10 5 -39
8 -65 7 -26 -1 -46 1 -43 5 5 8 -32 6 -41 -3 -4 -4 -14 -2 -21 5 -11 9 -17 9
-24 -3 -8 -12 -10 -12 -18 1 -6 8 -13 11 -17 7 -4 -4 -13 -2 -21 5 -11 8 -12
7 -7 -6 3 -9 1 -16 -5 -16 -6 0 -11 4 -11 9 0 13 -41 10 -59 -3 -11 -8 -13 -8
-8 0 4 7 0 15 -9 18 -8 3 -12 2 -9 -3 3 -5 1 -12 -5 -16 -5 -3 -10 -1 -10 6 0
8 -5 7 -17 -2 -9 -8 -14 -9 -10 -3 4 7 0 15 -9 18 -10 4 -13 2 -8 -6z m-4171
-3428 c-3 -5 -11 -10 -16 -10 -6 0 -7 5 -4 10 3 6 11 10 16 10 6 0 7 -4 4 -10z
m4701 -1089 c-2 -3 14 -17 35 -31 21 -13 39 -31 39 -40 0 -13 1 -13 10 0 8 13
10 12 10 -2 0 -10 5 -18 10 -18 6 0 10 -8 10 -17 0 -15 2 -16 10 -3 8 12 10
10 10 -8 0 -15 4 -21 12 -16 6 4 8 3 4 -4 -3 -6 -2 -13 4 -17 6 -4 8 -11 5
-16 -4 -5 -1 -9 4 -9 6 0 11 -7 11 -17 0 -9 3 -14 6 -10 4 3 13 0 20 -8 8 -8
23 -12 34 -10 11 2 20 0 20 -5 0 -5 7 -6 17 -3 12 5 14 3 8 -7 -6 -10 -4 -12
8 -7 10 3 17 2 17 -4 0 -6 5 -7 11 -4 5 4 20 -1 31 -12 12 -10 18 -12 14 -5
-7 11 -4 11 13 0 12 -7 21 -16 21 -20 0 -5 8 -8 18 -8 10 0 24 -9 32 -19 7
-11 17 -18 22 -15 4 3 8 -1 8 -8 0 -7 9 -19 20 -26 11 -7 20 -19 20 -28 0 -10
5 -14 16 -10 9 3 12 2 9 -4 -8 -13 26 -91 37 -84 4 3 5 -2 2 -10 -4 -9 -1 -16
6 -16 10 0 10 -3 0 -15 -10 -12 -9 -16 3 -21 9 -3 13 -12 10 -21 -4 -10 -2
-14 5 -9 7 4 10 -3 8 -21 -2 -16 3 -33 13 -41 9 -8 10 -10 2 -6 -10 5 -12 3
-7 -5 5 -7 15 -10 23 -7 8 3 12 2 9 -2 -7 -11 30 -42 40 -34 5 4 3 0 -3 -8
-10 -13 -8 -18 7 -27 18 -12 20 -23 5 -56 -4 -10 -5 -21 -1 -24 3 -4 -2 -15
-11 -26 -17 -20 -17 -20 2 -14 19 7 19 6 3 -7 -10 -7 -18 -17 -18 -21 0 -4 -8
-14 -17 -22 -10 -8 -12 -12 -6 -8 9 4 11 1 7 -9 -3 -9 -10 -14 -14 -11 -4 3
-11 -7 -14 -20 -4 -14 -11 -23 -16 -20 -6 3 -11 1 -11 -4 -1 -6 -2 -15 -3 -20
0 -5 -5 -13 -10 -18 -5 -5 -6 -3 -2 5 4 6 5 12 2 12 -2 0 -15 -18 -27 -39 -14
-25 -27 -37 -36 -34 -8 3 -13 0 -11 -8 2 -8 -3 -13 -9 -12 -7 2 -13 -4 -13
-12 0 -8 -5 -15 -11 -15 -5 0 -7 -5 -3 -12 4 -7 3 -8 -4 -4 -6 3 -16 -3 -22
-14 -6 -11 -15 -18 -20 -15 -5 3 -11 1 -15 -5 -3 -5 -1 -10 6 -10 6 0 0 -11
-15 -25 -15 -14 -24 -30 -20 -37 4 -7 3 -8 -4 -4 -11 6 -15 -5 -11 -30 0 -4
-5 -11 -13 -15 -11 -7 -11 -9 1 -9 9 0 10 -4 4 -12 -14 -19 -14 -60 0 -51 7 4
6 -1 -2 -11 -12 -14 -12 -19 -2 -25 7 -5 11 -14 9 -22 -5 -23 23 -79 36 -72 6
4 5 -1 -2 -10 -12 -13 -10 -18 7 -29 12 -7 21 -21 21 -30 0 -10 5 -18 10 -18
6 0 10 -6 10 -14 0 -7 7 -19 15 -26 8 -7 12 -16 9 -21 -3 -5 0 -18 7 -30 7
-15 8 -19 0 -15 -7 5 -9 1 -5 -8 3 -9 9 -14 13 -11 4 2 8 -2 8 -10 0 -8 -5
-11 -11 -8 -6 4 -5 0 1 -9 7 -8 10 -18 6 -21 -3 -4 0 -7 8 -7 11 0 11 -2 -1
-10 -12 -8 -12 -10 -1 -10 8 0 11 -3 8 -7 -4 -3 -2 -12 4 -20 9 -10 7 -13 -7
-13 -18 -1 -18 -1 -1 -11 9 -5 17 -15 17 -20 0 -6 -5 -7 -11 -3 -8 5 -8 1 0
-14 15 -27 14 -36 -2 -26 -7 5 -5 2 5 -8 12 -11 14 -18 6 -20 -6 -2 -12 -12
-14 -21 -1 -9 1 -15 5 -13 8 5 5 -63 -3 -71 -3 -4 -1 -12 5 -20 9 -10 8 -13
-2 -13 -11 0 -11 -2 1 -10 12 -8 12 -10 1 -10 -8 0 -11 -3 -8 -7 4 -3 2 -12
-4 -19 -7 -8 -7 -14 1 -19 6 -3 7 -11 4 -17 -4 -6 -8 -26 -10 -45 -1 -18 -8
-41 -15 -50 -12 -15 -12 -16 5 -9 18 6 19 5 5 -11 -9 -10 -15 -33 -13 -51 1
-18 -3 -35 -8 -38 -5 -3 -4 -12 3 -20 10 -12 9 -13 -4 -9 -12 5 -15 -1 -13
-34 1 -22 -1 -38 -6 -35 -4 3 -8 3 -8 0 0 -2 -3 -12 -7 -22 -5 -12 -3 -15 6
-9 8 4 6 -3 -3 -18 -13 -20 -14 -26 -4 -30 8 -3 5 -6 -7 -6 -15 -1 -17 -3 -6
-10 9 -6 10 -11 2 -15 -6 -4 -11 -21 -11 -37 0 -20 -4 -28 -11 -23 -8 5 -9 2
-1 -11 7 -13 7 -25 -1 -39 -25 -50 -26 -55 -16 -62 8 -4 7 -9 -2 -15 -12 -8
-11 -11 1 -19 12 -7 12 -10 1 -10 -7 0 -11 -6 -7 -15 3 -8 0 -15 -6 -15 -7 0
-7 -4 1 -13 6 -8 8 -17 4 -21 -10 -10 -11 -46 -1 -46 5 0 2 -7 -6 -16 -17 -16
-21 -29 -8 -20 5 3 8 -28 8 -70 -1 -53 -4 -73 -13 -70 -7 3 -10 -1 -6 -9 3 -8
8 -13 12 -10 4 2 8 -2 8 -10 0 -8 -4 -12 -9 -9 -5 3 -6 -7 -2 -22 6 -21 4 -25
-7 -19 -11 6 -11 5 -2 -5 6 -7 9 -19 6 -28 -5 -11 -2 -13 6 -7 10 6 11 3 2
-14 -8 -14 -8 -21 -1 -21 8 0 8 -6 0 -20 -8 -15 -8 -20 1 -20 7 0 9 -3 6 -7
-4 -3 -2 -12 5 -20 9 -11 7 -12 -7 -7 -14 6 -16 4 -10 -6 6 -10 3 -12 -14 -7
-19 5 -20 3 -9 -10 12 -15 11 -15 -9 -4 -13 6 -23 9 -23 6 0 -3 -10 0 -22 6
-22 12 -22 11 -8 -6 14 -17 14 -18 -8 -6 -13 7 -28 10 -35 8 -7 -2 -21 0 -31
6 -16 8 -18 6 -12 -9 5 -17 5 -17 -7 -2 -9 12 -18 14 -30 7 -11 -7 -17 -6 -17
1 0 7 -6 7 -21 -1 -15 -8 -19 -8 -15 0 4 6 2 11 -3 11 -6 0 -11 -6 -11 -12 0
-8 -3 -9 -8 -3 -4 6 -16 10 -27 10 -11 0 -23 -4 -27 -10 -5 -6 -8 -5 -8 3 0
10 -5 10 -21 1 -15 -8 -19 -8 -15 0 4 6 2 11 -3 11 -6 0 -11 -6 -11 -12 0 -8
-3 -9 -8 -3 -4 6 -16 10 -27 10 -11 0 -23 -4 -27 -10 -5 -6 -8 -5 -8 3 0 10
-5 10 -21 1 -15 -8 -19 -8 -15 0 4 6 2 11 -3 11 -6 0 -12 -8 -12 -17 -1 -17
-2 -17 -6 0 -2 9 -9 15 -14 12 -9 -6 -13 8 -9 35 1 8 11 27 22 42 10 15 17 32
13 38 -3 5 3 15 14 21 10 7 17 18 14 26 -3 7 2 16 11 19 9 3 16 10 16 16 0 5
-6 6 -12 2 -7 -4 -5 2 5 14 11 12 16 26 11 33 -4 7 -3 10 3 6 6 -4 14 0 17 9
4 10 2 13 -6 8 -7 -4 -1 8 12 26 13 18 17 30 9 25 -7 -5 -5 2 6 15 11 13 14
20 8 16 -7 -4 -13 -3 -13 2 0 6 6 12 14 15 9 4 12 14 9 28 -5 17 -3 20 8 14
11 -7 11 -5 -1 10 -9 11 -10 16 -2 11 6 -4 12 -3 12 3 0 5 3 17 7 27 5 13 3
15 -7 9 -9 -6 -8 -1 3 14 8 13 13 30 10 39 -5 11 -3 13 8 7 12 -7 12 -6 1 7
-9 12 -10 18 -2 23 6 4 9 13 6 21 -3 7 -1 16 4 19 9 6 8 24 -3 42 -4 6 -3 14
2 18 6 3 7 13 4 22 -4 9 -2 14 3 11 5 -4 10 7 10 23 1 16 -3 29 -10 29 -6 0
-4 5 4 11 12 8 12 12 2 16 -10 4 -9 8 5 19 17 12 16 13 -6 9 -23 -4 -23 -4 -5
17 17 19 17 21 2 15 -16 -5 -16 -4 -5 15 9 15 9 22 1 25 -7 2 -9 13 -6 25 4
15 2 19 -7 13 -10 -6 -11 -3 -2 14 10 19 8 24 -9 23 -3 0 -5 15 -4 34 1 19 -3
37 -9 41 -6 3 -7 1 -3 -5 4 -7 5 -12 2 -12 -3 0 -10 10 -17 21 -7 15 -8 19 0
15 7 -5 9 -1 5 8 -3 9 -11 16 -17 16 -6 0 -7 3 -4 7 4 3 -1 12 -11 20 -11 10
-12 12 -2 8 10 -4 9 -2 -2 8 -10 8 -18 20 -18 26 0 7 -4 9 -10 6 -9 -6 -14 8
-11 28 1 5 -3 6 -9 2 -5 -3 -10 1 -10 9 0 9 -3 15 -7 15 -21 -3 -33 2 -27 13
4 6 3 8 -4 4 -6 -3 -17 1 -25 9 -9 8 -23 15 -32 15 -9 0 -24 7 -32 16 -13 13
-17 13 -24 2 -7 -11 -9 -11 -9 0 0 7 -5 10 -11 6 -6 -3 -15 0 -20 7 -7 12 -9
12 -9 0 0 -11 -3 -11 -17 0 -20 17 -16 17 -37 0 -14 -12 -19 -12 -26 -2 -6 10
-10 9 -19 -5 -6 -11 -11 -14 -11 -9 0 6 -9 11 -19 11 -11 0 -18 -3 -15 -7 2
-4 -3 -9 -11 -13 -8 -3 -15 0 -15 7 0 7 -5 4 -11 -6 -6 -9 -14 -15 -20 -12 -5
4 -9 1 -9 -4 0 -6 -9 -11 -20 -11 -11 0 -20 -5 -20 -11 0 -5 -4 -7 -10 -4 -5
3 -10 1 -10 -5 0 -6 -13 -16 -30 -21 -17 -6 -27 -16 -23 -22 4 -7 0 -8 -13 -3
-10 4 -15 4 -11 0 4 -5 -3 -14 -15 -21 -24 -13 -23 -13 29 -16 17 -1 29 1 27
5 -2 4 0 9 6 13 5 3 10 1 10 -6 0 -8 4 -8 15 1 8 7 21 10 29 7 7 -3 24 2 37
11 21 14 22 14 16 -1 -3 -9 -2 -17 2 -17 5 0 11 5 13 11 5 14 68 18 68 5 0 -7
3 -8 8 -1 11 15 42 18 42 3 0 -9 3 -9 12 0 9 9 15 9 27 -1 12 -9 13 -9 7 1 -4
6 -2 12 3 12 6 0 11 -5 11 -11 0 -6 7 -8 16 -5 9 4 13 2 8 -5 -4 -7 -1 -10 7
-7 8 3 29 -1 47 -8 17 -7 32 -10 32 -6 1 4 21 -15 45 -42 40 -44 50 -64 46
-88 0 -5 4 -8 10 -8 5 0 8 -4 4 -9 -3 -5 -1 -12 5 -16 6 -4 8 -11 5 -16 -4 -5
-3 -14 1 -21 11 -17 11 -58 1 -65 -4 -2 -3 -11 4 -19 6 -8 7 -14 2 -14 -13 0
-14 -42 -1 -57 8 -10 7 -12 -6 -7 -12 5 -15 2 -10 -10 4 -10 1 -16 -7 -16 -12
0 -12 -2 0 -9 9 -6 10 -14 5 -22 -5 -8 -9 -24 -9 -35 0 -12 -7 -30 -15 -40
-13 -16 -13 -17 0 -9 12 7 13 6 3 -7 -7 -8 -10 -18 -6 -21 3 -4 2 -7 -4 -7
-10 0 -12 -10 -15 -61 -1 -15 -7 -25 -13 -23 -6 3 -12 -8 -13 -22 -1 -15 -7
-33 -13 -40 -6 -8 -9 -20 -6 -27 3 -7 -4 -19 -15 -26 -14 -9 -17 -16 -10 -23
7 -7 4 -16 -9 -29 -10 -10 -16 -25 -13 -34 4 -8 1 -15 -6 -15 -7 0 -10 -7 -6
-15 3 -10 -1 -15 -12 -15 -15 0 -15 -2 -2 -10 13 -9 8 -14 -12 -11 -4 0 -5 -8
-3 -19 2 -11 -4 -24 -13 -30 -14 -8 -14 -10 -2 -10 12 0 11 -3 -2 -11 -10 -5
-18 -16 -18 -23 0 -7 -10 -26 -22 -41 -16 -20 -19 -30 -10 -33 9 -3 6 -10 -9
-23 -15 -13 -17 -19 -8 -19 10 0 11 -3 2 -8 -6 -4 -65 -7 -131 -7 -77 0 -118
-4 -114 -10 3 -5 -2 -4 -11 4 -13 10 -17 10 -17 1 0 -10 -3 -10 -15 0 -12 10
-15 10 -16 -1 0 -10 -2 -11 -6 -1 -7 19 -26 14 -19 -5 6 -16 5 -16 -8 0 -10
13 -16 15 -21 7 -6 -9 -10 -9 -16 1 -8 12 -10 12 -18 0 -6 -10 -10 -10 -16 -1
-6 9 -10 9 -16 -1 -6 -10 -9 -11 -9 -1 0 6 -5 12 -11 12 -6 0 -8 -8 -5 -17 6
-16 5 -16 -8 0 -10 13 -16 15 -21 7 -6 -9 -10 -9 -16 1 -8 12 -10 12 -18 0 -7
-11 -10 -11 -16 0 -6 9 -10 8 -16 -7 -7 -17 -8 -17 -8 -1 -1 19 -21 24 -21 5
0 -9 -4 -8 -10 2 -6 9 -10 11 -10 3 0 -7 -7 -10 -17 -6 -10 4 -14 2 -10 -4 5
-8 -1 -7 -17 0 -13 7 -22 16 -18 22 3 5 -2 4 -11 -4 -10 -8 -17 -9 -17 -3 0 6
-11 22 -25 36 -14 14 -25 33 -25 43 0 11 -3 14 -8 7 -5 -8 -13 -3 -26 14 -12
16 -14 23 -5 18 8 -4 6 -1 -3 7 -10 8 -18 20 -18 26 0 7 -5 9 -11 6 -6 -4 -9
0 -7 11 2 11 -2 18 -8 17 -7 -1 -11 3 -11 10 1 30 -4 48 -11 43 -4 -2 -9 7
-10 22 -1 14 -5 28 -10 31 -9 7 -15 30 -14 54 1 13 -4 17 -16 13 -13 -5 -13
-3 2 9 11 8 14 15 8 15 -7 0 -12 13 -12 28 0 15 -6 34 -12 41 -9 10 -9 12 -1
7 8 -4 11 1 10 14 -1 11 -4 20 -8 20 -4 0 -9 7 -12 14 -4 9 -1 13 6 10 8 -3
13 4 13 15 0 11 -4 17 -8 15 -10 -6 -11 10 -1 20 12 11 12 37 0 29 -6 -4 -8 0
-4 10 4 10 10 25 13 34 5 15 4 16 -5 3 -9 -13 -11 -12 -8 5 1 11 5 25 8 30 4
6 6 22 5 38 -1 15 3 27 9 27 5 0 3 5 -5 10 -9 6 -11 10 -3 10 7 0 10 7 7 15
-4 8 0 23 7 32 12 14 12 17 0 21 -10 3 -10 6 -1 12 7 4 13 19 13 34 0 14 3 23
8 20 5 -3 9 0 9 5 0 6 -6 11 -12 11 -8 0 -9 3 -3 8 12 8 18 29 17 54 0 10 3
20 9 23 5 4 9 17 9 31 0 13 5 24 10 24 6 0 10 14 10 30 0 17 5 30 11 30 8 0 7
6 -2 17 -10 11 -10 14 -1 9 8 -5 12 0 12 13 0 12 4 21 9 21 5 0 12 7 15 16 3
8 2 13 -3 9 -5 -3 -8 2 -7 11 1 8 8 19 15 24 8 4 10 13 6 20 -6 9 -4 11 5 5
10 -6 12 -4 7 9 -4 9 -3 15 2 12 5 -3 12 1 15 10 4 10 2 13 -7 9 -6 -4 -4 0 5
8 14 11 15 16 5 26 -9 10 -9 12 3 9 8 -2 14 3 12 10 -1 6 3 12 10 12 6 0 8 3
5 7 -4 3 1 12 11 20 10 9 11 12 2 7 -10 -5 -8 1 5 16 12 14 14 20 5 15 -13 -8
-13 -6 -1 8 7 9 18 14 24 10 6 -4 7 -1 2 6 -9 15 14 63 26 55 5 -3 6 2 3 10
-3 9 -1 16 6 16 6 0 8 5 5 10 -3 6 -1 10 6 10 7 0 9 3 6 7 -4 3 2 12 13 20 11
8 17 20 14 28 -4 8 -1 15 6 15 6 0 9 4 5 9 -3 6 2 14 11 19 10 6 15 16 11 25
-4 12 -2 14 10 10 11 -4 14 -2 9 5 -4 7 -2 12 4 12 6 0 8 5 5 10 -3 6 -1 10 4
10 6 0 10 6 8 13 -1 6 4 11 11 9 8 -1 11 2 7 8 -3 5 -1 10 5 10 6 0 8 5 4 11
-3 6 0 15 7 20 8 4 14 14 14 21 0 7 7 13 16 12 9 -1 15 7 15 20 -1 12 4 20 11
19 7 -2 10 4 7 12 -4 8 -1 15 6 15 7 0 10 7 6 15 -3 8 -2 14 2 14 4 -1 14 -1
22 0 13 1 13 2 0 11 -13 8 -12 11 6 16 16 4 20 11 16 26 -3 12 -1 19 4 16 8
-6 35 15 34 27 -1 35 1 40 10 25 5 -8 10 -13 11 -10 0 3 2 14 4 25 2 11 12 25
22 33 10 7 18 16 18 20 0 4 4 6 8 4 5 -1 6 2 2 8 -3 5 -1 10 4 10 6 0 11 7 11
15 0 8 5 15 12 15 6 0 8 3 5 6 -4 4 8 20 26 37 17 16 24 24 14 17 -15 -11 -17
-10 -11 3 3 9 14 19 25 22 10 4 18 12 16 18 -1 7 3 11 10 10 7 -2 10 4 7 12
-4 8 -1 15 5 15 6 0 11 7 11 16 0 10 6 14 14 11 10 -4 13 0 11 14 -2 11 0 17
4 14 9 -5 26 23 23 38 -2 7 14 11 31 8 4 -1 3 8 -3 19 -8 15 -8 18 4 14 10 -4
13 2 10 26 -3 22 0 29 9 24 9 -5 9 -4 1 5 -14 15 -7 51 10 51 6 0 4 5 -4 10
-8 5 -10 10 -3 10 6 0 10 11 8 26 -2 18 2 24 12 20 11 -5 11 -1 2 15 -9 17 -8
20 2 14 9 -6 11 -4 6 7 -3 9 0 24 8 34 7 10 11 24 8 31 -3 7 0 13 7 13 6 0 8
5 5 10 -3 6 -1 10 4 10 6 0 11 9 11 20 0 10 11 39 25 63 13 25 21 48 17 52 -4
5 -2 5 4 2 7 -4 14 3 18 18 4 14 10 23 15 20 5 -2 12 2 15 11 3 8 2 12 -4 9
-6 -3 -10 -4 -10 0 0 3 12 10 26 15 23 9 25 12 13 28 -7 9 -10 14 -5 10 10 -8
36 15 36 32 0 6 4 9 9 6 5 -3 7 8 6 24 -1 17 1 33 6 35 4 3 6 12 2 20 -3 8 0
15 6 15 6 0 11 5 11 11 0 5 -6 7 -12 3 -7 -4 -4 3 7 16 13 15 15 21 5 16 -9
-4 -8 -2 3 7 19 16 24 32 6 21 -6 -3 -4 5 5 18 9 14 13 28 9 31 -3 4 -1 7 6 7
7 0 9 5 6 10 -3 6 -1 10 5 10 7 0 10 6 7 14 -3 8 -4 16 -1 19 7 6 54 -4 50
-12z m-4402 -1877 c3 -8 2 -12 -4 -9 -6 3 -10 10 -10 16 0 14 7 11 14 -7z
m4070 -1342 c3 -5 -1 -9 -9 -9 -8 0 -12 4 -9 9 3 4 7 8 9 8 2 0 6 -4 9 -8z"/>
<path d="M4760 1756 c0 -2 8 -10 18 -17 15 -13 16 -12 3 4 -13 16 -21 21 -21
13z"/>
<path d="M7701 8383 c-6 -10 -11 -13 -11 -8 0 14 -140 17 -140 4 0 -6 -6 -7
-12 -2 -18 11 -39 13 -33 3 3 -5 1 -11 -5 -15 -5 -3 -10 -1 -10 6 0 7 -9 5
-26 -6 -18 -11 -24 -12 -18 -4 6 12 5 12 -9 0 -9 -7 -17 -10 -17 -5 0 5 -5 2
-10 -6 -9 -13 -10 -13 -10 0 0 11 -3 10 -11 -4 -9 -15 -13 -16 -20 -5 -7 11
-9 10 -9 -4 0 -15 -3 -16 -22 -6 -21 11 -22 11 -9 -5 12 -14 12 -16 -4 -10
-14 6 -16 4 -10 -7 8 -12 6 -12 -8 0 -14 11 -18 11 -23 -2 -3 -8 -16 -18 -30
-21 -13 -4 -24 -11 -24 -16 0 -6 -9 -10 -21 -10 -16 0 -20 -4 -14 -17 5 -14 4
-15 -6 -6 -10 10 -17 7 -35 -12 -12 -13 -25 -21 -28 -17 -4 3 -9 -4 -13 -17
-4 -15 -8 -19 -13 -11 -6 9 -10 6 -14 -8 -4 -12 -16 -24 -26 -27 -11 -3 -19
-12 -17 -18 1 -7 -4 -11 -10 -9 -7 1 -13 -2 -13 -6 0 -5 -7 -17 -16 -28 -8
-10 -12 -13 -8 -5 5 9 3 12 -5 7 -6 -4 -8 -12 -5 -18 4 -6 -4 -19 -17 -29 -20
-15 -22 -21 -13 -36 7 -11 22 -17 35 -15 17 1 20 -1 10 -7 -9 -6 -10 -11 -2
-15 6 -4 11 -4 11 0 0 4 6 0 13 -11 8 -10 19 -15 25 -11 7 4 12 2 12 -4 0 -6
6 -10 13 -9 18 3 48 -12 42 -21 -3 -5 4 -6 15 -3 11 3 20 0 20 -6 0 -6 6 -10
13 -9 6 2 11 -3 9 -11 -3 -12 0 -12 12 -1 13 10 16 10 16 0 0 -8 3 -10 7 -7 3
4 13 1 21 -6 13 -9 14 -9 8 0 -5 9 -2 11 8 7 9 -3 14 -10 11 -14 -3 -4 7 -8
23 -7 47 0 63 -3 58 -11 -3 -5 1 -9 9 -9 8 0 12 4 9 9 -3 4 0 8 5 8 6 0 11 -4
11 -9 0 -5 15 -8 33 -7 17 2 36 0 42 -3 17 -9 45 -8 45 3 0 6 4 6 11 -1 6 -6
18 -9 25 -6 8 3 21 0 29 -7 13 -11 14 -10 10 1 -4 11 4 14 32 14 21 -1 44 4
52 10 11 8 13 7 7 -3 -7 -11 -4 -12 12 -3 17 9 53 17 95 20 5 1 5 6 1 12 -4 7
1 7 16 -1 18 -10 21 -9 15 1 -6 9 -3 11 8 6 10 -3 17 -2 17 3 0 5 8 6 17 3 13
-5 15 -3 9 13 -5 14 -4 16 4 8 12 -12 60 3 60 19 0 5 8 6 19 2 13 -4 23 2 35
19 10 16 23 24 36 21 13 -2 20 2 20 11 0 8 5 14 10 14 26 0 51 20 42 35 -3 6
-2 7 3 3 11 -10 65 23 65 40 0 7 5 10 10 7 6 -3 10 -1 10 4 0 6 7 11 16 11 14
0 15 2 3 17 -10 12 -10 15 -1 9 7 -4 19 0 28 8 8 9 12 16 8 16 -4 0 1 7 12 16
10 8 14 13 8 10 -7 -3 -14 3 -17 14 -3 11 -11 20 -19 20 -10 0 -9 -3 2 -10 8
-5 11 -10 6 -10 -5 0 -19 10 -32 23 -57 55 -73 66 -77 54 -4 -9 -6 -9 -6 1 -1
6 -8 12 -16 12 -8 0 -15 5 -15 11 0 6 -7 9 -15 5 -9 -3 -15 0 -15 9 0 8 -9 15
-21 15 -13 0 -18 4 -13 13 5 8 2 8 -9 -2 -11 -9 -17 -10 -17 -2 0 6 -6 10 -12
9 -7 -2 -12 3 -10 11 2 9 -3 11 -14 7 -9 -3 -23 -1 -30 5 -10 8 -14 8 -14 0 0
-6 -4 -11 -10 -11 -5 0 -10 8 -10 17 0 9 -3 14 -6 10 -3 -3 -17 -2 -30 3 -17
7 -24 6 -24 -2 0 -6 -7 -4 -18 5 -12 11 -22 13 -32 7 -10 -6 -20 -4 -31 6 -16
14 -18 14 -28 -3z m249 -443 c0 -5 -5 -10 -11 -10 -5 0 -7 5 -4 10 3 6 8 10
11 10 2 0 4 -4 4 -10z"/>
<path d="M5416 8198 c3 -5 10 -6 15 -3 13 9 11 12 -6 12 -8 0 -12 -4 -9 -9z"/>
<path d="M1793 8155 c3 -18 -1 -21 -25 -19 -16 1 -35 -5 -43 -13 -10 -9 -15
-10 -15 -3 0 7 -9 2 -20 -11 -10 -13 -19 -19 -20 -12 0 6 6 14 13 16 9 4 9 6
-1 6 -7 1 -15 -6 -18 -14 -4 -8 -10 -13 -14 -10 -4 3 -11 -2 -14 -11 -4 -9
-13 -14 -21 -10 -9 3 -15 0 -15 -10 0 -8 -4 -12 -10 -9 -5 3 -10 -1 -10 -9 0
-9 -4 -17 -10 -17 -5 -1 -16 -2 -22 -3 -7 -1 -12 -7 -11 -14 2 -7 -3 -12 -11
-12 -8 0 -18 -9 -21 -20 -3 -11 -11 -20 -16 -20 -5 0 -14 -11 -19 -25 -5 -14
-14 -25 -19 -25 -5 0 -11 -9 -14 -21 -3 -12 -10 -18 -16 -14 -7 3 -8 0 -5 -9
7 -18 -14 -59 -26 -51 -4 3 -6 -5 -2 -17 3 -13 1 -19 -6 -15 -12 8 -11 -11 2
-32 6 -9 5 -12 -2 -7 -6 3 -13 3 -16 -2 -2 -4 10 -9 27 -10 18 -2 34 -7 35
-13 3 -6 9 -6 18 2 11 9 15 8 20 -4 3 -9 12 -13 20 -10 8 3 11 10 7 17 -3 6 2
3 13 -6 16 -14 23 -15 32 -6 7 7 12 8 12 2 0 -5 22 -9 50 -9 27 0 50 3 50 6 0
4 14 5 31 3 26 -3 30 -1 24 14 -4 12 -3 14 4 7 13 -13 81 -7 81 7 0 5 5 6 10
3 6 -3 10 -1 10 5 0 6 4 9 9 5 5 -3 12 -1 16 5 4 6 11 8 16 5 5 -4 9 -1 9 5 0
6 5 8 10 5 6 -3 13 1 16 10 5 12 9 13 21 4 8 -7 13 -8 12 -3 -4 21 2 35 11 29
6 -4 7 -12 4 -18 -4 -7 -2 -7 7 1 8 7 14 18 14 25 0 7 7 12 15 12 8 1 14 6 13
13 -2 7 4 12 12 12 8 0 15 5 15 11 0 5 5 7 10 4 6 -3 10 1 10 10 0 9 5 13 10
10 6 -3 10 1 10 10 0 11 5 15 16 11 8 -3 13 -2 9 3 -8 13 6 42 17 35 5 -3 12
3 15 15 3 11 8 19 12 17 3 -2 12 2 19 10 10 11 10 14 0 14 -8 1 -5 7 6 15 11
8 16 15 12 15 -5 0 -2 7 5 16 19 23 22 54 4 54 -8 0 -15 5 -15 10 0 6 -9 10
-20 10 -11 0 -20 5 -20 12 0 9 -3 9 -12 0 -15 -15 -32 -16 -23 -2 6 9 -1 11
-57 13 -13 1 -26 6 -30 11 -5 7 -8 6 -8 -3 0 -11 -3 -11 -15 -1 -8 7 -15 9
-15 4 0 -5 -11 -9 -25 -9 -14 0 -25 4 -25 9 0 5 -8 2 -17 -5 -14 -12 -16 -12
-8 0 6 10 4 12 -5 6 -22 -13 -64 -15 -73 -2 -6 8 -7 5 -4 -8z"/>
<path d="M1200 7911 c0 -7 -5 -9 -12 -5 -7 4 -9 3 -5 -1 4 -5 -2 -14 -14 -20
-17 -10 -19 -13 -6 -18 16 -6 54 39 43 51 -3 3 -6 0 -6 -7z"/>
<path d="M7380 7685 c-1 -5 -2 -12 -2 -15 0 -3 -22 -5 -49 -4 -28 0 -52 -3
-55 -8 -3 -5 -14 -6 -25 -3 -11 4 -19 2 -19 -4 0 -6 -5 -11 -11 -11 -5 0 -7 6
-3 13 6 8 3 8 -9 -1 -9 -8 -20 -11 -25 -9 -4 3 -14 1 -22 -5 -12 -8 -12 -9 3
-4 10 3 15 2 12 -4 -3 -5 -20 -7 -37 -3 -27 5 -30 4 -25 -11 4 -10 3 -15 -3
-11 -6 3 -10 1 -10 -4 0 -6 4 -11 9 -11 6 0 8 -9 6 -20 -2 -11 0 -20 5 -20 5
0 14 -16 21 -35 7 -19 18 -35 24 -35 5 0 3 -5 -5 -10 -13 -9 -13 -10 0 -11 8
-1 19 -1 24 0 5 1 3 -6 -5 -15 -9 -12 -9 -15 -1 -10 6 4 12 2 12 -3 0 -6 -5
-11 -12 -11 -6 0 -8 -3 -5 -6 4 -4 14 -1 24 7 12 10 15 10 9 1 -4 -7 -2 -20 6
-29 11 -14 11 -16 -2 -8 -8 4 -5 -2 8 -14 12 -12 20 -26 17 -32 -4 -5 1 -9 9
-9 14 0 20 -12 17 -32 0 -5 6 -8 14 -8 14 0 20 -12 16 -33 -1 -5 3 -6 9 -2 5
3 10 -2 10 -11 0 -10 3 -14 6 -11 8 8 74 -65 68 -74 -2 -4 7 -6 20 -5 15 2 23
-2 22 -12 0 -8 8 -19 19 -26 11 -6 23 -15 27 -21 4 -5 11 -10 15 -10 17 0 72
-49 66 -58 -4 -6 0 -8 10 -4 10 4 17 2 17 -4 0 -6 7 -8 16 -5 8 3 13 2 10 -2
-3 -4 4 -13 14 -20 16 -10 19 -9 14 6 -2 9 1 7 7 -5 11 -20 27 -28 52 -24 4 0
7 -3 7 -9 0 -5 7 -10 15 -10 8 0 15 -5 15 -12 0 -9 3 -9 12 0 10 10 16 8 31
-10 10 -13 15 -16 11 -8 -6 12 -5 13 7 3 12 -10 18 -10 28 0 7 6 12 8 11 2 -5
-26 0 -37 13 -27 10 9 19 7 37 -5 13 -9 20 -11 16 -5 -4 7 -2 12 3 12 6 0 11
-8 12 -17 0 -12 2 -13 6 -5 4 10 8 10 21 0 13 -11 14 -11 7 2 -7 12 -6 13 6 3
8 -6 24 -10 34 -9 11 2 28 -1 38 -6 12 -6 17 -5 18 4 0 7 4 4 9 -7 6 -13 9
-15 9 -5 1 13 2 13 11 0 9 -13 11 -13 20 0 7 10 13 11 18 5 8 -12 71 -14 89
-2 6 4 13 2 15 -4 3 -9 9 -9 26 0 17 9 22 9 22 0 0 -8 4 -8 13 -2 6 6 24 8 40
6 17 -2 27 1 27 9 0 9 3 9 10 -2 7 -11 10 -11 10 -2 0 7 5 10 10 7 6 -4 18 -1
27 7 14 11 16 11 8 -2 -6 -11 -5 -12 4 -4 17 15 25 68 10 58 -9 -5 -10 -1 -7
14 4 12 2 22 -4 22 -5 0 -6 5 -3 10 3 6 0 10 -7 10 -9 0 -9 3 2 10 11 7 11 10
2 10 -7 0 -10 5 -7 10 3 6 1 10 -5 10 -6 0 -8 5 -5 10 3 6 1 10 -5 10 -6 0 -9
4 -5 9 3 5 -2 16 -10 24 -8 9 -15 25 -15 37 0 13 -4 19 -12 14 -7 -5 -9 0 -6
14 4 13 0 23 -8 26 -8 3 -14 15 -14 27 0 12 -3 20 -6 16 -10 -9 -30 15 -38 46
-4 17 -11 25 -18 21 -8 -5 -9 -1 -4 11 5 15 4 16 -8 6 -13 -11 -15 -9 -11 8 2
14 -1 21 -11 21 -8 0 -14 4 -14 8 0 5 -9 19 -20 32 -11 13 -20 20 -20 16 0 -4
-6 -1 -14 6 -8 7 -12 17 -9 21 3 5 -4 11 -16 14 -11 3 -18 9 -15 14 3 5 -2 9
-11 9 -9 0 -13 5 -10 10 3 6 -3 10 -15 10 -12 0 -18 5 -15 10 6 9 -8 14 -27
11 -5 0 -8 4 -8 9 0 6 -16 18 -35 27 -19 9 -35 24 -35 32 0 14 -1 14 -10 1 -7
-11 -10 -11 -10 -2 0 7 -4 10 -10 7 -5 -3 -10 -1 -10 5 0 6 -4 8 -10 5 -5 -3
-10 -1 -10 4 0 6 -7 11 -16 11 -9 0 -12 5 -8 13 5 8 2 8 -9 -2 -11 -9 -17 -10
-17 -2 0 6 -7 11 -16 11 -8 0 -12 5 -8 11 4 8 0 8 -15 0 -17 -10 -22 -9 -27 4
-4 10 -13 13 -25 10 -11 -4 -19 -2 -19 5 0 6 -4 8 -10 5 -5 -3 -10 -2 -10 3 0
5 -10 8 -22 7 -13 -1 -28 2 -35 7 -7 6 -14 5 -18 -2 -5 -8 -11 -8 -21 1 -7 6
-21 9 -29 5 -8 -3 -15 0 -15 7 0 8 -4 6 -10 -3 -8 -12 -10 -12 -10 5 0 15 -3
17 -9 7 -4 -8 -12 -14 -16 -14 -4 0 -12 6 -16 14 -7 10 -9 10 -9 1 0 -7 -7
-13 -16 -13 -8 0 -12 5 -9 11 4 6 -2 5 -13 -2 -17 -11 -24 -10 -38 2 -11 9
-15 9 -10 2 4 -8 2 -13 -8 -13 -8 0 -17 6 -19 13 -3 6 -6 8 -7 2z"/>
<path d="M6731 7591 c-12 -17 -19 -31 -15 -31 4 0 -1 -6 -11 -14 -11 -8 -16
-19 -12 -30 4 -10 3 -15 -3 -11 -6 3 -12 -1 -15 -9 -3 -9 -8 -24 -12 -33 -3
-10 -7 -21 -8 -25 -2 -5 -4 -11 -5 -15 -1 -5 -2 -11 -1 -15 0 -5 -4 -8 -10 -8
-8 0 -7 -6 2 -17 10 -11 10 -14 2 -9 -12 7 -18 -5 -14 -28 1 -4 -4 -14 -10
-22 -9 -11 -8 -14 2 -14 10 -1 9 -4 -3 -14 -13 -10 -15 -15 -6 -24 7 -7 8 -12
2 -12 -6 0 -9 -38 -8 -92 3 -151 3 -150 17 -142 7 5 7 1 -2 -10 -12 -14 -12
-19 -1 -26 7 -4 10 -15 7 -24 -4 -9 -2 -16 3 -16 5 0 6 -7 3 -17 -5 -12 -3
-14 8 -8 11 7 11 5 -1 -10 -9 -11 -10 -16 -2 -11 11 7 16 -4 13 -31 -1 -6 4
-15 10 -19 8 -5 9 -3 4 6 -5 8 -4 11 2 7 6 -4 8 -18 5 -32 -3 -18 0 -25 12
-25 9 0 13 -6 10 -15 -4 -8 1 -17 9 -21 9 -3 13 -12 10 -21 -4 -10 -2 -14 4
-10 10 6 27 -27 24 -45 -1 -5 4 -8 10 -8 5 0 7 -6 3 -12 -5 -8 0 -7 11 2 10 8
16 10 12 4 -3 -6 7 -25 24 -43 16 -18 26 -38 22 -44 -4 -7 2 -5 12 3 11 9 16
10 11 3 -4 -8 -2 -13 4 -13 6 0 8 -4 5 -10 -3 -6 1 -7 9 -4 9 3 16 10 16 15 0
5 8 9 18 9 14 0 15 2 2 10 -13 8 -12 10 3 10 10 0 15 5 12 10 -3 6 -1 10 4 10
6 0 10 6 8 13 -1 6 4 11 11 9 8 -1 11 2 7 8 -3 5 -2 10 4 10 6 0 8 7 5 15 -4
8 -1 15 5 15 6 0 11 7 11 16 0 9 5 12 13 8 6 -4 9 -4 5 0 -9 11 12 68 31 84
14 12 14 13 -4 8 -17 -5 -18 -4 -5 6 8 7 17 24 18 38 2 14 9 31 15 38 8 10 7
16 -2 22 -9 5 -10 9 -2 11 14 5 20 169 6 169 -5 0 -4 4 3 9 11 6 10 11 -3 25
-12 12 -13 16 -3 16 10 0 10 2 -1 9 -11 7 -11 9 0 14 10 4 10 6 2 6 -8 1 -13
15 -13 36 0 19 -5 35 -11 35 -7 0 -9 10 -6 26 3 20 1 24 -11 19 -9 -3 -13 -3
-10 1 11 10 -19 73 -44 95 -13 12 -17 18 -10 14 6 -3 12 -1 12 4 0 6 -4 11
-10 11 -5 0 -10 7 -10 16 0 8 -3 13 -7 11 -5 -2 -18 6 -31 19 -14 15 -18 24
-10 25 7 0 3 4 -9 9 -13 5 -31 22 -40 38 -10 16 -24 27 -32 24 -8 -3 -11 0 -7
7 4 6 2 11 -5 11 -6 0 -17 7 -24 16 -10 15 -14 13 -34 -15z"/>
<path d="M1465 7250 c-3 -6 1 -7 9 -4 18 7 21 14 7 14 -6 0 -13 -4 -16 -10z"/>
<path d="M7490 7070 c0 -5 5 -10 11 -10 5 0 7 5 4 10 -3 6 -8 10 -11 10 -2 0
-4 -4 -4 -10z"/>
<path d="M8865 5514 c2 -32 -3 -47 -14 -54 -14 -8 -14 -9 2 -10 28 0 32 1 28
14 -2 6 -4 28 -5 48 0 20 -3 39 -7 42 -3 3 -4 -15 -4 -40z"/>
<path d="M8854 5411 c1 -16 -2 -27 -7 -24 -5 3 -7 0 -5 -8 3 -8 1 -24 -3 -37
-6 -16 -6 -21 2 -16 8 4 8 1 1 -12 -5 -11 -7 -25 -4 -33 3 -9 0 -11 -8 -6 -9
6 -9 3 -1 -14 9 -16 9 -21 0 -21 -8 0 -8 -4 1 -15 8 -9 8 -15 2 -15 -6 0 -10
-13 -10 -29 1 -15 -2 -33 -6 -40 -4 -6 -2 -11 4 -11 6 0 8 -5 3 -12 -4 -7 -6
-21 -4 -32 2 -13 -1 -16 -11 -10 -10 6 -10 4 1 -9 7 -9 10 -17 5 -17 -5 0 -2
-5 6 -10 13 -8 12 -10 -3 -10 -15 0 -16 -3 -7 -20 8 -15 8 -20 -1 -20 -8 0 -9
-4 0 -13 8 -10 7 -17 -1 -25 -7 -7 -9 -12 -5 -12 3 0 2 -11 -3 -25 -7 -18 -5
-28 6 -40 9 -8 11 -15 5 -15 -5 0 -8 -8 -6 -18 2 -10 0 -37 -5 -60 -4 -23 -5
-44 -2 -47 9 -9 9 -45 1 -45 -5 0 -6 -6 -4 -12 11 -30 11 -88 1 -92 -7 -3 -6
-5 2 -5 7 -1 10 -6 6 -12 -3 -6 0 -15 7 -20 9 -6 10 -9 2 -9 -7 0 -10 -10 -7
-24 2 -14 0 -28 -6 -31 -6 -4 -5 -12 5 -21 11 -11 12 -21 5 -40 -7 -17 -7 -23
0 -19 6 3 10 1 10 -4 0 -6 -4 -11 -8 -11 -5 0 -9 -7 -9 -15 0 -12 3 -12 15 -2
13 10 14 9 4 -9 -8 -16 -8 -24 1 -34 9 -10 9 -11 0 -6 -8 5 -13 1 -13 -9 0 -9
4 -14 8 -11 9 6 8 -36 -1 -51 -4 -7 -3 -14 3 -18 15 -9 13 -58 -2 -50 -7 4 -6
1 2 -7 9 -7 14 -21 12 -30 -2 -10 2 -18 8 -18 9 0 10 -4 1 -13 -8 -10 -7 -17
2 -27 10 -10 9 -11 -3 -5 -12 7 -13 6 -4 -6 6 -8 10 -35 10 -61 -1 -25 3 -46
8 -45 5 1 11 -4 13 -10 3 -7 0 -13 -7 -13 -6 0 -8 -5 -4 -11 3 -6 7 -26 9 -45
1 -19 5 -37 9 -41 4 -4 5 5 2 20 -2 15 0 27 5 27 6 0 7 6 2 15 -5 8 -6 46 -3
85 3 38 3 70 0 70 -3 0 -5 34 -5 75 0 41 2 75 5 75 4 0 4 126 -1 195 -1 11 -1
49 0 85 0 36 0 72 0 80 0 8 0 83 0 165 0 83 0 157 0 165 -2 31 1 184 4 268 1
23 -1 42 -4 42 -3 0 -4 24 -2 53 5 65 6 109 3 122 -1 6 -3 16 -4 24 -2 30 -24
22 -22 -8z"/>
<path d="M1883 5267 c1 -7 -8 -11 -20 -11 -16 1 -20 -3 -16 -15 4 -9 3 -13 -2
-9 -4 4 -14 0 -22 -10 -8 -9 -11 -11 -8 -4 6 11 3 11 -14 0 -12 -7 -21 -18
-21 -24 0 -6 -15 -17 -32 -25 -21 -9 -32 -21 -32 -32 2 -15 -1 -16 -14 -5 -11
9 -14 9 -9 1 5 -7 -3 -18 -20 -28 -15 -9 -19 -14 -9 -10 16 5 17 3 6 -10 -7
-8 -17 -12 -23 -8 -6 4 -8 -2 -5 -15 4 -16 2 -19 -10 -15 -10 4 -13 2 -8 -5 4
-7 3 -12 -2 -12 -6 0 -19 -16 -31 -36 -12 -19 -17 -32 -11 -29 5 3 10 1 10 -4
0 -6 -7 -11 -16 -11 -8 0 -12 -5 -9 -10 3 -6 -1 -13 -10 -16 -13 -6 -14 -8 -3
-15 10 -7 11 -9 0 -9 -7 0 -10 -4 -7 -10 3 -5 2 -10 -3 -10 -6 0 -9 -13 -8
-29 1 -20 -2 -27 -11 -24 -8 3 -12 -4 -11 -19 2 -47 -2 -69 -12 -63 -5 3 -10
1 -10 -4 0 -6 6 -11 13 -11 9 0 8 -3 -2 -9 -11 -7 -11 -9 0 -13 8 -3 10 -9 3
-19 -13 -22 -14 -119 -1 -119 8 0 8 -3 2 -8 -5 -4 -11 -13 -13 -21 -3 -12 -1
-12 14 0 16 13 16 12 5 -8 -6 -13 -8 -23 -4 -23 5 0 8 -12 7 -27 0 -16 3 -31
7 -34 5 -3 10 -17 11 -32 1 -15 7 -27 13 -27 5 0 3 -5 -5 -10 -13 -8 -12 -10
4 -10 11 0 16 -3 13 -7 -4 -3 -1 -13 6 -21 10 -13 9 -15 -3 -8 -8 4 -7 1 4 -8
10 -8 15 -19 11 -25 -3 -6 -1 -11 5 -11 6 0 8 -4 5 -10 -3 -5 1 -10 10 -10 9
0 13 -4 10 -10 -4 -6 1 -7 12 -3 16 6 17 5 3 -13 -14 -18 -14 -18 2 -5 10 7
15 17 12 22 -3 5 0 9 7 9 6 0 18 8 26 18 8 10 11 11 7 2 -7 -13 -5 -13 9 -1 9
7 14 18 10 24 -3 5 -1 7 5 3 6 -3 18 4 26 16 9 12 16 18 16 13 0 -6 5 -2 11 8
6 9 15 14 21 11 6 -4 9 -1 6 7 -3 8 6 22 19 32 13 10 21 22 18 27 -3 5 6 17
20 28 14 11 25 24 25 30 0 5 10 17 23 26 12 9 16 14 10 11 -21 -10 -15 5 10
27 12 11 15 16 7 12 -11 -5 -10 -2 3 13 9 11 14 23 10 26 -3 4 0 7 7 7 7 0 10
3 7 7 -4 3 1 12 11 20 9 8 12 12 5 9 -7 -4 -11 1 -10 13 0 11 4 18 7 16 3 -2
11 5 18 15 7 11 8 21 2 25 -5 3 -7 12 -4 20 4 8 10 13 15 10 9 -6 4 29 -7 47
-4 7 -3 8 4 4 8 -5 12 5 13 31 1 21 1 41 0 46 0 4 5 7 11 7 9 0 8 4 -2 10 -13
9 -13 11 0 20 13 8 13 10 1 10 -12 0 -12 3 -3 12 8 8 9 15 1 25 -9 10 -8 13 1
13 9 0 7 7 -6 22 -16 18 -17 21 -2 15 12 -4 15 -2 11 8 -3 8 -10 12 -17 8 -6
-4 -5 1 3 10 7 9 9 17 3 17 -5 0 -8 14 -7 30 1 17 -1 30 -5 30 -5 0 -7 8 -5
18 1 9 -3 27 -10 38 -11 16 -11 24 -2 34 9 10 9 11 0 6 -8 -4 -13 -1 -13 8 0
9 -6 16 -12 16 -10 0 -10 2 0 9 10 6 10 10 -2 20 -20 17 -56 22 -53 8z"/>
<path d="M1831 4446 c-9 -11 -9 -16 1 -22 7 -4 10 -4 6 1 -4 4 -3 14 3 22 6 7
9 13 6 13 -2 0 -10 -6 -16 -14z"/>
<path d="M2500 4335 c-7 -9 -15 -13 -18 -11 -2 3 -14 1 -25 -5 -14 -8 -18 -8
-12 1 4 7 -4 6 -22 -3 -20 -11 -34 -12 -46 -6 -13 8 -15 6 -11 -6 7 -16 -19
-17 -43 -2 -9 5 -11 3 -7 -6 2 -7 -1 -14 -8 -15 -38 -3 -54 -8 -61 -19 -4 -6
-16 -10 -27 -8 -11 2 -18 0 -15 -6 4 -5 1 -9 -5 -9 -6 0 -8 -5 -5 -10 4 -6 3
-10 -2 -9 -17 4 -63 -14 -57 -22 3 -5 -4 -9 -16 -9 -12 0 -25 -10 -32 -25 -6
-13 -15 -22 -20 -19 -5 4 -16 -3 -24 -15 -9 -12 -20 -19 -25 -15 -5 3 -9 2 -8
-3 3 -20 -2 -33 -12 -31 -6 2 -14 -3 -17 -11 -3 -9 0 -11 9 -7 8 4 5 0 -5 -8
-11 -9 -24 -16 -30 -16 -5 0 -6 -3 -3 -7 4 -3 -1 -12 -11 -20 -9 -8 -11 -11
-3 -7 9 5 12 3 7 -4 -4 -7 -14 -12 -23 -12 -13 0 -13 -3 -3 -15 9 -11 9 -15 1
-15 -7 0 -9 -5 -5 -12 4 -6 3 -8 -3 -5 -6 4 -17 -1 -24 -10 -10 -12 -10 -14
-1 -9 6 4 12 3 12 -3 0 -5 -5 -11 -11 -13 -6 -2 -12 -15 -12 -30 -1 -17 -6
-23 -12 -18 -7 6 -11 -5 -10 -34 0 -29 -4 -42 -11 -39 -8 3 -11 -6 -10 -26 1
-17 -1 -31 -6 -31 -4 0 -5 -6 -2 -14 3 -8 1 -17 -5 -21 -17 -10 -13 -25 7 -25
16 -1 16 -1 0 -10 -12 -8 -15 -21 -13 -52 2 -24 -1 -48 -7 -55 -12 -15 -11
-16 69 -18 35 0 59 3 56 8 -3 5 4 6 16 2 13 -4 21 -2 21 5 0 6 4 9 9 5 5 -3
13 -1 16 5 5 8 11 7 21 -1 11 -9 14 -8 14 4 0 10 7 15 19 12 11 -2 22 3 25 11
3 9 10 13 16 9 5 -3 21 1 34 10 14 9 29 14 34 11 6 -3 12 4 16 17 5 18 8 20
16 7 8 -13 10 -12 10 3 0 10 4 16 10 12 5 -3 18 3 30 15 11 11 25 20 30 20 6
0 10 7 10 16 0 14 3 14 15 4 13 -11 14 -10 9 4 -5 12 -2 15 10 10 12 -5 15 -2
9 12 -5 13 -3 16 10 11 12 -4 14 -2 10 10 -4 9 -2 14 3 11 11 -6 45 28 36 36
-3 3 2 6 12 6 9 0 15 4 12 9 -3 5 1 11 9 15 8 3 15 10 15 16 0 5 9 19 21 31
11 11 18 27 15 34 -3 9 1 12 13 10 14 -3 17 2 13 22 -3 16 -1 24 5 20 11 -7
26 25 26 55 0 10 3 16 6 13 4 -2 13 5 20 17 7 11 8 17 2 13 -6 -3 -11 -2 -11
4 0 5 5 11 12 13 10 4 16 22 19 68 1 8 6 21 12 28 6 8 5 12 -4 12 -11 0 -12 2
-1 9 7 4 14 22 14 39 1 18 5 29 11 25 6 -4 7 -1 2 7 -4 7 -8 24 -9 38 -1 16
-8 26 -19 28 -10 1 -14 -2 -11 -8 4 -6 1 -8 -7 -6 -8 3 -13 11 -11 17 1 7 -2
10 -8 6 -6 -3 -7 -12 -4 -18 4 -7 4 -9 -1 -5 -4 4 -14 3 -22 -3 -16 -14 -17 3
-1 19 7 7 9 12 6 12 -3 0 -11 -7 -18 -15z"/>
<path d="M1165 2641 c-3 -5 -2 -12 3 -15 5 -3 9 1 9 9 0 17 -3 19 -12 6z"/>
<path d="M6766 592 c-3 -5 1 -9 9 -9 8 0 12 4 9 9 -3 4 -7 8 -9 8 -2 0 -6 -4
-9 -8z"/>
<path d="M1620 490 c0 -5 5 -10 11 -10 5 0 7 5 4 10 -3 6 -8 10 -11 10 -2 0
-4 -4 -4 -10z"/>
<path d="M7870 488 c0 -4 11 -7 25 -6 28 3 24 11 -5 13 -11 1 -20 -2 -20 -7z"/>
</g>
</svg>
